<svg width="43" height="85" fill="none" xmlns="http://www.w3.org/2000/svg"><path d="M19.284 78.202l.282-.162a49.793 49.793 0 005.971 6.647h5.91a46.399 46.399 0 01-8.565-8.599c4.33-2.712 5.787-8.358 3.21-12.811l-.956-1.651-1.655.953c-2.709 1.56-4.33 4.249-4.677 7.125a45.05 45.05 0 01-1.862-3.99c4.899-1.494 7.78-6.58 6.443-11.555l-.495-1.841-1.846.493c-3.018.806-5.279 2.982-6.363 5.666a45.827 45.827 0 01-.745-4.326c5.11-.19 9.203-4.352 9.203-9.495V42.75h-1.912c-3.111 0-5.85 1.506-7.595 3.803.061-1.458.199-2.905.398-4.342 4.978 1.124 10.001-1.838 11.333-6.8l.495-1.842-1.846-.493c-3.003-.803-6.034-.056-8.314 1.708a45.97 45.97 0 011.508-4.081c4.516 2.365 10.131.802 12.706-3.645l.955-1.651-1.655-.953c-2.695-1.552-5.821-1.613-8.484-.494a45.988 45.988 0 012.517-3.565c3.748 3.46 9.585 3.401 13.23-.232l1.351-1.348-1.351-1.348c-2.263-2.257-5.376-3.122-8.31-2.644l-.62-.667h1.327c7.389 0 13.379-5.974 13.379-13.344h-1.912c-7.186 0-13.032 5.656-13.348 12.748l-1.33-1.43c-.013.011-.025.025-.036.036.441-2.894-.426-5.95-2.66-8.178l-1.352-1.347-1.35 1.347a9.512 9.512 0 000 13.48l.24.24a49.509 49.509 0 00-3.14 4.453c-.32-2.919-1.952-5.656-4.696-7.237l-1.655-.953-.956 1.651c-2.64 4.558-1.072 10.387 3.498 13.02l.304.175a49.966 49.966 0 00-1.885 5.115c-1.063-2.742-3.354-4.968-6.418-5.786l-1.846-.494-.495 1.842c-1.366 5.084 1.659 10.31 6.758 11.674l.335.09a49.178 49.178 0 00-.497 5.417c-1.741-2.37-4.528-3.925-7.695-3.925H.204v1.906c0 5.263 4.28 9.532 9.556 9.532h.334c.207 1.807.513 3.587.91 5.34-2.291-1.822-5.372-2.596-8.419-1.782L.74 58.24l.495 1.842c1.367 5.084 6.605 8.101 11.704 6.74l.297-.08a48.624 48.624 0 002.27 4.91c-2.681-1.158-5.85-1.11-8.576.46l-1.655.953.956 1.65c2.64 4.557 8.484 6.12 13.053 3.487z" fill="#406844"/></svg>