<svg width="0" height="0" class="hidden"><symbol xmlns="http://www.w3.org/2000/svg" viewBox="0 0 31 31" id="fb"><path d="M15.5 0C6.953 0 0 6.953 0 15.5 0 24.046 6.953 31 15.5 31 24.046 31 31 24.046 31 15.5 31 6.953 24.047 0 15.5 0zm3.855 16.046h-2.522v8.988h-3.737v-8.988H11.32v-3.177h1.776v-2.055c0-1.471.7-3.77 3.771-3.77l2.77.01v3.083h-2.01c-.328 0-.793.164-.793.866v1.867h2.847l-.326 3.176z"/></symbol><symbol fill="none" xmlns="http://www.w3.org/2000/svg" viewBox="0 0 64 64" id="gym"><path d="M62.933 19.2h-3.2v-1.6A3.733 3.733 0 0056 13.867a3.692 3.692 0 00-1.6.374v-1.44a4.267 4.267 0 00-8.533 0v6.4H41.6v-1.068a3.186 3.186 0 00-5.333-2.368 3.151 3.151 0 00-4.267 0 3.151 3.151 0 00-4.267 0 3.186 3.186 0 00-5.333 2.368V19.2h-4.267v-6.4a4.267 4.267 0 10-8.533 0v1.441a3.692 3.692 0 00-1.6-.374A3.733 3.733 0 004.267 17.6v1.6h-3.2C.477 19.2 0 19.678 0 20.267v6.4c0 .589.478 1.066 1.067 1.066h3.2v1.6A3.733 3.733 0 008 33.067a3.695 3.695 0 001.6-.375v1.441a4.267 4.267 0 008.533 0v-6.4h2.134V31.3a5.3 5.3 0 001.562 3.771l2.704 2.705v17.692h2.134V37.333c0-.282-.113-.554-.313-.754l-3.016-3.017a3.218 3.218 0 01-.938-2.263v-6.766h6.248a1.28 1.28 0 011.032.5l.023.034a.97.97 0 01.148.435.918.918 0 010 .202.868.868 0 01-.014.106c-.024.113-.066.22-.123.32-.186.33-.535.535-.914.537h-3.2c-.59 0-1.067.477-1.067 1.066v2.134c0 .46.294.867.73 1.012l2.347.784c1.905.633 3.323 3.516 3.323 5.67h2.134c0-2.934-1.826-6.711-4.778-7.694l-1.622-.541V28.8H28.8a3.182 3.182 0 002.347-1.067h9.386v3.912a3.218 3.218 0 01-.64 1.92l-2.346 3.129a1.062 1.062 0 00-.214.64v18.133h2.134V37.689l2.133-2.844a5.364 5.364 0 001.067-3.2v-3.912h3.2v6.4a4.267 4.267 0 108.533 0v-1.44a3.695 3.695 0 001.6.374 3.733 3.733 0 003.733-3.734v-1.6h3.2c.59 0 1.067-.477 1.067-1.066v-6.4c0-.59-.478-1.067-1.067-1.067zM4.267 25.6H2.133v-4.267h2.134V25.6zM9.6 29.333a1.6 1.6 0 01-3.2 0V17.6a1.6 1.6 0 013.2 0v11.733zm6.4 4.8a2.133 2.133 0 11-4.267 0V12.8a2.133 2.133 0 114.267 0v21.333zM21.333 22.4c-.589 0-1.066.478-1.066 1.067V25.6h-2.134v-4.267H22.4c.001.202.022.403.06.601.012.063.033.12.048.181.024.095.042.193.074.285h-1.249zm5.334-1.067a1.067 1.067 0 01-2.134 0v-3.2a1.067 1.067 0 012.134 0v3.2zm4.266 0a1.067 1.067 0 01-2.133 0v-3.2a1.067 1.067 0 012.133 0v3.2zm6.4-3.2a1.067 1.067 0 012.134 0v3.2a1.067 1.067 0 01-2.134 0v-3.2zm-4.266 0a1.067 1.067 0 012.133 0v3.2a1.067 1.067 0 01-2.133 0v-3.2zm12.8 7.467H32v-.03c0-.212-.023-.424-.066-.631-.007-.029-.02-.056-.027-.086-.019-.077-.047-.15-.071-.226a3.08 3.08 0 00-.163-.399c-.031-.064-.046-.136-.081-.198a.472.472 0 00.035-.027c.049-.032.091-.07.138-.106.08-.06.165-.116.24-.183.061.056.133.1.199.15.066.05.13.106.202.151.101.062.205.119.312.17.072.035.14.076.213.106.125.048.252.088.382.119.067.018.13.043.2.057.41.084.833.084 1.243 0 .07-.014.133-.04.2-.057.13-.031.257-.071.382-.119.075-.03.144-.072.213-.106.107-.051.211-.108.313-.17.07-.047.134-.1.201-.151.067-.052.138-.094.2-.15.061.056.133.1.199.15.066.05.131.106.203.151.1.062.204.119.311.17.073.035.14.076.213.106.125.048.253.088.382.119.068.018.13.043.2.057a3.191 3.191 0 003.827-3.134h4.267V25.6zm6.4 8.533a2.133 2.133 0 11-4.267 0V12.8a2.133 2.133 0 114.267 0v21.333zm5.333-4.8a1.6 1.6 0 01-3.2 0V17.6a1.6 1.6 0 013.2 0v11.733zm4.267-3.733h-2.134v-4.267h2.134V25.6z" fill="#406844"/></symbol><symbol xmlns="http://www.w3.org/2000/svg" viewBox="0 0 31 31" id="in"><path d="M18.467 15.5a2.967 2.967 0 11-5.934 0 2.967 2.967 0 015.934 0z"/><path d="M22.438 10.25a2.76 2.76 0 00-.665-1.023 2.756 2.756 0 00-1.024-.665c-.313-.122-.785-.267-1.652-.307-.94-.042-1.22-.052-3.597-.052s-2.658.01-3.597.052c-.867.04-1.339.185-1.652.307-.387.142-.737.37-1.024.665a2.76 2.76 0 00-.666 1.024c-.121.314-.266.785-.306 1.653-.043.938-.052 1.22-.052 3.596 0 2.377.01 2.658.052 3.597.04.868.185 1.339.306 1.652.143.387.37.737.666 1.024.287.295.637.523 1.024.666.313.122.785.267 1.652.306.939.043 1.22.052 3.597.052s2.658-.01 3.596-.052c.868-.04 1.34-.184 1.653-.306.776-.3 1.39-.913 1.69-1.69.121-.313.266-.784.306-1.652.043-.939.052-1.22.052-3.597s-.01-2.658-.052-3.596c-.04-.868-.185-1.34-.307-1.653zM15.5 20.07a4.57 4.57 0 110-9.14 4.57 4.57 0 010 9.14zm4.751-8.253a1.068 1.068 0 110-2.136 1.068 1.068 0 010 2.136z"/><path d="M15.5 0C6.94 0 0 6.94 0 15.5 0 24.06 6.94 31 15.5 31 24.06 31 31 24.06 31 15.5 31 6.94 24.06 0 15.5 0zm8.847 19.17c-.043.947-.194 1.594-.414 2.16a4.55 4.55 0 01-2.603 2.603c-.566.22-1.213.37-2.16.414-.95.043-1.253.053-3.67.053s-2.72-.01-3.67-.053c-.947-.044-1.594-.194-2.16-.414a4.36 4.36 0 01-1.576-1.027 4.362 4.362 0 01-1.027-1.576c-.22-.566-.37-1.213-.413-2.16-.044-.95-.054-1.253-.054-3.67s.01-2.72.053-3.67c.043-.947.194-1.594.414-2.16a4.36 4.36 0 011.027-1.576A4.36 4.36 0 019.67 7.067c.566-.22 1.213-.37 2.16-.414.95-.043 1.253-.053 3.67-.053s2.72.01 3.67.054c.947.043 1.594.193 2.16.413a4.363 4.363 0 011.577 1.027 4.36 4.36 0 011.026 1.576c.22.566.37 1.213.414 2.16.043.95.053 1.253.053 3.67s-.01 2.72-.053 3.67z"/></symbol><symbol fill="none" xmlns="http://www.w3.org/2000/svg" viewBox="0 0 43 84" id="leaf"><path d="M32.718 53.375c5.277 0 9.556-4.268 9.556-9.531v-1.907h-1.911c-3.167 0-5.953 1.556-7.693 3.922a48.746 48.746 0 00-.497-5.418l.335-.09c5.097-1.362 8.122-6.587 6.758-11.673l-.495-1.842-1.846.494c-3.064.82-5.356 3.044-6.418 5.785a49.967 49.967 0 00-1.885-5.114l.304-.175c4.57-2.633 6.137-8.462 3.498-13.02l-.956-1.651-1.655.953c-2.744 1.58-4.379 4.318-4.696 7.236a49.514 49.514 0 00-3.14-4.453l.24-.24a9.512 9.512 0 000-13.479l-1.35-1.348-1.352 1.348c-2.234 2.228-3.102 5.284-2.66 8.178l-.036-.036-1.33 1.43C15.17 5.655 9.325 0 2.139 0H.227c0 7.37 5.99 13.344 13.379 13.344h1.326l-.62.667c-2.934-.48-6.048.387-8.31 2.644L4.65 18.003l1.351 1.347c3.643 3.634 9.48 3.693 13.23.233a45.987 45.987 0 012.517 3.565c-2.663-1.12-5.79-1.06-8.484.493l-1.655.953.955 1.651c2.575 4.447 8.19 6.01 12.706 3.645a45.596 45.596 0 011.508 4.081c-2.28-1.763-5.311-2.508-8.314-1.708l-1.846.494.495 1.841c1.332 4.962 6.355 7.925 11.334 6.8.2 1.437.336 2.884.397 4.342-1.743-2.297-4.482-3.803-7.593-3.803H19.34v1.907c0 5.143 4.091 9.304 9.2 9.495a45.86 45.86 0 01-.745 4.325C26.71 54.98 24.45 52.805 21.432 52l-1.846-.494-.495 1.841c-1.336 4.974 1.544 10.06 6.443 11.556a45.022 45.022 0 01-1.862 3.99c-.348-2.877-1.968-5.566-4.676-7.126l-1.655-.953-.956 1.651c-2.578 4.453-1.122 10.1 3.209 12.812a46.341 46.341 0 01-8.564 8.599h5.91a49.773 49.773 0 005.97-6.647l.283.162c4.57 2.632 10.414 1.07 13.053-3.489l.956-1.65-1.655-.953c-2.726-1.57-5.894-1.619-8.576-.46a48.646 48.646 0 002.27-4.91l.297.08c5.097 1.363 10.338-1.655 11.704-6.74l.495-1.842-1.846-.494c-3.047-.814-6.127-.04-8.419 1.782.397-1.751.703-3.534.91-5.34h.336v.001z" fill="#406844"/></symbol><symbol xmlns="http://www.w3.org/2000/svg" viewBox="0 0 111 134" id="logo"><path d="M1.038 80.453l23.71-8.791 10.256 4.395v2.37l-10.256-3.834-23.71 5.86z"/><path d="M1.038 75.093l23.566-9.94 10.4 4.834v2.536L24.67 68.255 1.038 75.093z"/><path d="M1.038 69.752l23.416-11.089 10.549 5.274v2.704l-10.411-4.702-23.556 7.814h.002z"/><path d="M1.038 64.387l23.27-12.238 10.696 5.717v2.868L24.52 55.601 1.038 64.387z"/><path d="M1.038 59.046L24.16 45.66l10.844 6.155v3.03l-10.562-5.56-23.404 9.761z"/><path d="M1.038 53.697L24.016 39.16l10.988 6.594v3.197l-10.64-5.995-23.326 10.74zm30.819-16.534l23.044-18.248 11.056 7.591v3.464l-10.79-6.527-23.31 13.72z"/><path d="M31.674 42.648l23.31-17.15 10.973 7.193v3.38l-10.723-6.16-23.56 12.737z"/><path d="M31.49 48.151l23.577-16.05 10.89 6.793v3.297L55.3 36.397 31.49 48.152z"/><path d="M31.308 53.636L55.15 38.685l10.806 6.394v3.213l-10.589-5.428-24.059 10.772z"/><path d="M31.125 59.141l24.109-13.853 10.723 5.994v3.13l-10.523-5.06-24.31 9.789z"/><path d="M30.941 64.626l24.376-12.754 10.64 5.594v3.047L55.5 55.817l-24.56 8.809h.001z"/><path d="M30.76 70.13L55.4 58.476l10.557 5.193v2.964l-10.39-4.328L30.76 70.13zm-.185 5.494l24.909-10.556 10.473 4.796v2.88l-10.323-3.963-25.059 6.843z"/><path d="M30.393 81.119l25.174-9.457 10.39 4.395v2.798L55.7 75.258 30.393 81.12v-.001zm33.966-60.472L87.401 0l22.644 20.646L87.203 4.662 64.359 20.647z"/><path d="M64.358 26.146L87.385 6.6l22.611 19.547L87.203 11.15 64.358 26.146z"/><path d="M64.358 31.631l23.005-18.443 22.589 18.443-22.75-13.997L64.358 31.63z"/><path d="M64.358 37.13l22.989-17.343 22.555 17.344-22.7-13.01-22.844 13.01z"/><path d="M64.358 42.625l22.972-16.24 22.522 16.24-22.65-12.01-22.844 12.01z"/><path d="M64.358 48.126l22.955-15.141 22.489 15.141-22.6-11.023-22.844 11.023z"/><path d="M64.358 53.62l22.933-14.03 22.467 14.03-22.555-10.024L64.358 53.62z"/><path d="M64.358 59.12l22.916-12.93 22.433 12.931-22.504-9.035-22.845 9.035z"/><path d="M64.358 64.625l22.9-11.828 22.4 11.828-22.456-8.037-22.844 8.037z"/><path d="M64.358 70.124l22.883-10.727 22.367 10.727-22.406-7.048-22.844 7.048z"/><path d="M64.358 75.62l22.861-9.624 22.344 9.623-22.362-6.05-22.843 6.05z"/><path d="M64.358 81.109l22.844-8.524 22.311 8.524-22.31-5.062-22.845 5.063v-.001zM111 83.18H0v3.053h111V83.18zm0 47.008H0v3.052h111v-3.052zm-93.372-2.896l-1.73-9.221H5.802l-1.73 9.221h-2.93L8.63 89.18h4.437l7.49 38.112h-2.931zM6.302 115.44h9.096l-4.41-23.578h-.251L6.302 115.44zm18.216 11.852V89.206h4.56l9.722 34.678V89.207h2.806l.15 38.085h-4.46l-9.97-34.754v34.754h-2.808zm31.195-18.993h8.57v8.694c0 .785-.034 1.596-.101 2.431a15.042 15.042 0 01-.401 2.43 9.191 9.191 0 01-.852 2.255 6.297 6.297 0 01-1.478 1.854c-.602.535-1.353.961-2.255 1.278-.885.301-1.954.451-3.207.451h-.026c-1.269 0-2.354-.159-3.256-.475-.903-.335-1.663-.777-2.28-1.329a6.378 6.378 0 01-1.48-1.929 10.865 10.865 0 01-.801-2.356 19.183 19.183 0 01-.375-2.63 49.78 49.78 0 01-.076-2.706v-16.011c0-.918.025-1.837.075-2.756a17 17 0 01.401-2.656c.19-.821.467-1.62.827-2.38a6.1 6.1 0 011.479-1.905c.617-.534 1.37-.96 2.254-1.278.902-.317 1.98-.476 3.232-.476h.026c1.269 0 2.355.168 3.257.501.918.317 1.678.743 2.28 1.278a6.196 6.196 0 011.478 1.88c.367.718.644 1.47.827 2.254.184.786.3 1.596.35 2.43.068.82.101 1.604.101 2.356v.727h-2.881v-.727c0-1.07-.06-2.088-.176-3.057-.1-.986-.342-1.837-.726-2.556a4.223 4.223 0 00-1.629-1.753c-.718-.435-1.68-.652-2.881-.652-1.22 0-2.189.225-2.907.676-.7.451-1.244 1.078-1.629 1.88-.368.785-.61 1.712-.726 2.781a37.419 37.419 0 00-.15 3.483v15.91c0 1.186.042 2.314.125 3.383.1 1.052.325 1.98.677 2.781.347.779.913 1.44 1.628 1.905.718.467 1.712.701 2.982.701 1.153 0 2.08-.2 2.78-.601a4.267 4.267 0 001.655-1.704c.385-.718.642-1.562.776-2.53a23.74 23.74 0 00.2-3.183v-5.988h-5.687v-2.681zm14.383 18.993v-38.06h7.766c1.487 0 2.757.174 3.81.525 1.051.334 1.904.885 2.555 1.654.668.768 1.153 1.77 1.453 3.006.3 1.237.452 2.74.452 4.511v3.633c0 1.821-.434 3.425-1.303 4.81-.852 1.37-2.039 2.389-3.558 3.058a8.396 8.396 0 011.553 1.253c.45.434.827.935 1.127 1.503.318.568.577 1.211.778 1.929.2.718.35 1.537.45 2.455l.652 5.538c.084.785.234 1.537.45 2.255.218.702.469 1.345.753 1.93h-3.057a16.551 16.551 0 01-.627-1.83 17.302 17.302 0 01-.425-2.28l-.652-5.537c-.134-1.12-.385-2.08-.752-2.881-.351-.819-.776-1.487-1.278-2.006-.484-.517-1.002-.902-1.553-1.152-.552-.25-1.078-.375-1.579-.375h-4.16v16.061h-2.855zm13.154-28.39c0-1.587-.142-2.839-.426-3.758-.266-.918-.644-1.612-1.128-2.08a3.024 3.024 0 00-1.678-.902 10.604 10.604 0 00-2.13-.2h-4.936v16.537h4.835c.836 0 1.587-.15 2.256-.451a5.2 5.2 0 001.703-1.278 5.646 5.646 0 001.078-1.879c.266-.718.41-1.495.426-2.33v-3.659zm16.211-10.097c1.287 0 2.38.158 3.283.476.902.317 1.662.752 2.28 1.302a6.066 6.066 0 011.453 1.93 10.1 10.1 0 01.827 2.38c.201.852.326 1.738.375 2.656.051.902.076 1.796.076 2.682v15.985c0 1.382-.083 2.763-.25 4.135-.151 1.353-.511 2.581-1.078 3.683-.552 1.086-1.379 1.972-2.481 2.657-1.102.668-2.597 1.001-4.485 1.001h-.025c-1.27 0-2.363-.159-3.282-.475-.902-.318-1.662-.752-2.28-1.303a6.61 6.61 0 01-1.453-1.93 12.49 12.49 0 01-.827-2.381 16.913 16.913 0 01-.351-2.63 49.676 49.676 0 01-.075-2.706v-16.011c0-.918.024-1.837.075-2.756a19.15 19.15 0 01.376-2.656c.2-.852.483-1.646.851-2.38a6.279 6.279 0 011.454-1.905c.618-.551 1.377-.977 2.28-1.278.902-.317 1.979-.476 3.232-.476h.025zm.05 36.181c1.203 0 2.156-.225 2.857-.676a4.283 4.283 0 001.628-1.854c.368-.802.601-1.738.702-2.807.117-1.068.176-2.221.176-3.457v-15.936c0-1.17-.043-2.28-.126-3.332-.083-1.07-.308-2.006-.677-2.807a4.198 4.198 0 00-1.628-1.904c-.718-.468-1.712-.701-2.982-.701a.35.35 0 01-.15-.026c-1.186.017-2.13.259-2.832.727-.684.45-1.21 1.077-1.578 1.879-.367.785-.602 1.712-.7 2.781a36.315 36.315 0 00-.152 3.433v15.91c0 .786.017 1.546.05 2.281.034.735.108 1.428.227 2.079a8.38 8.38 0 00.525 1.804c.233.535.542.995.927 1.379.4.384.894.685 1.478.902.602.217 1.329.325 2.18.325h.075z"/></symbol><symbol fill="none" xmlns="http://www.w3.org/2000/svg" viewBox="0 0 31 31" id="phone"><path d="M18.286 17.857l-1.185 2.27a.554.554 0 01-.687.261 9.979 9.979 0 01-5.801-5.802.554.554 0 01.262-.688l2.27-1.184-.716-4.056a2.768 2.768 0 00-4.125 2.413C8.31 17.49 13.51 22.69 19.929 22.696a2.768 2.768 0 002.413-4.124l-4.056-.715z" fill="#F0AF9A"/><path d="M15.5 0C6.94 0 0 6.94 0 15.5 0 24.06 6.94 31 15.5 31 24.06 31 31 24.06 31 15.5 30.99 6.944 24.056.01 15.5 0zm4.429 23.804C12.9 23.796 7.204 18.1 7.196 11.07a3.876 3.876 0 016.044-3.21.55.55 0 01.236.362l.83 4.698a.553.553 0 01-.29.587l-2.18 1.14a8.868 8.868 0 004.519 4.52l1.138-2.183a.553.553 0 01.587-.29l4.698.831c.148.026.279.11.362.235a3.875 3.875 0 01-3.211 6.043z" fill="#F0AF9A"/></symbol><symbol fill="none" xmlns="http://www.w3.org/2000/svg" viewBox="0 0 31 31" id="pin"><path d="M16.607 12.178a1.107 1.107 0 11-2.214 0 1.107 1.107 0 012.214 0z" fill="#F0AF9A"/><path d="M15.5 7.75a5.542 5.542 0 00-5.536 5.536c0 3.517 4.213 8.303 5.536 9.717 1.322-1.414 5.536-6.203 5.536-9.717A5.541 5.541 0 0015.5 7.75zm0 6.643a2.214 2.214 0 110-4.429 2.214 2.214 0 010 4.429z" fill="#F0AF9A"/><path d="M15.5 0C6.94 0 0 6.94 0 15.5 0 24.06 6.94 31 15.5 31 24.06 31 31 24.06 31 15.5 30.99 6.944 24.056.01 15.5 0zm.391 24.195a.554.554 0 01-.782 0c-.256-.255-6.252-6.305-6.252-10.91a6.643 6.643 0 1113.286 0c0 4.605-5.996 10.655-6.252 10.91z" fill="#F0AF9A"/></symbol><symbol fill="none" xmlns="http://www.w3.org/2000/svg" viewBox="0 0 24 24" id="arr"><g clip-path="url(#clip0)"><path d="M16.698 12L5.858 1.16a.677.677 0 010-.96.677.677 0 01.962 0l11.32 11.322a.677.677 0 010 .96L6.82 23.8a.683.683 0 01-.478.201.663.663 0 01-.478-.201.677.677 0 010-.96L16.698 12z" fill="#fff"/></g><defs><clipPath id="clip0"><path fill="#fff" transform="matrix(-1 0 0 1 24 0)" d="M0 0h24v24H0z"/></clipPath></defs></symbol><symbol xmlns="http://www.w3.org/2000/svg" viewBox="0 0 72 16" id="arrow"><path d="M71.707 8.707a1 1 0 000-1.414L65.343.929a1 1 0 10-1.414 1.414L69.586 8l-5.657 5.657a1 1 0 001.414 1.414l6.364-6.364zM0 9h71V7H0v2z"/></symbol><symbol fill="none" xmlns="http://www.w3.org/2000/svg" viewBox="0 0 64 64" id="boat"><path d="M28.2 45.6l.8-.6a5.138 5.138 0 016 0l.8.6a7 7 0 008.4 0l.8-.6a5.028 5.028 0 013-1v-2a7.04 7.04 0 00-4.2 1.4l-.8.6a5.138 5.138 0 01-6 0l-.8-.6a7.19 7.19 0 00-8.4 0l-.8.6a5.138 5.138 0 01-6 0l-.8-.6A7.04 7.04 0 0016 42v2a5.028 5.028 0 013 1l.8.6a7.19 7.19 0 008.4 0zM59 50a5.138 5.138 0 01-6 0l-.8-.6a7.189 7.189 0 00-8.4 0l-.8.6a5.138 5.138 0 01-6 0l-.8-.6a7.189 7.189 0 00-8.4 0l-.8.6a5.138 5.138 0 01-6 0l-.8-.6a7.189 7.189 0 00-8.4 0l-.8.6a5.138 5.138 0 01-6 0l-2.4-1.8-1.2 1.6 2.4 1.8a7.19 7.19 0 008.4 0l.8-.6a5.138 5.138 0 016 0l.8.6a7.19 7.19 0 008.4 0l.8-.6a5.138 5.138 0 016 0l.8.6a7.19 7.19 0 008.4 0l.8-.6a5.138 5.138 0 016 0l.8.6a7 7 0 008.4 0l2.4-1.8-1.2-1.6L59 50zm4-32.04V17a1 1 0 00-1.423-.906 73.263 73.263 0 01-23.783 6.526l7.5-7.5a2.414 2.414 0 00-3.414-3.414L30.586 23h-.139A130.126 130.126 0 017.9 21.027l-5.726-1.01a.99.99 0 00-1.137.731 1 1 0 00-.002.493l.5 2.011a24.909 24.909 0 009.974 14.366L11 38a5.138 5.138 0 01-6 0l-2.4-1.8-1.2 1.6 2.4 1.8a7.19 7.19 0 008.4 0l.8-.6a5.138 5.138 0 016 0l.8.6a7.19 7.19 0 008.4 0l.8-.6a5.138 5.138 0 016 0l.8.6a7.19 7.19 0 008.4 0l.8-.6a5.138 5.138 0 016 0l.8.6a7 7 0 008.4 0l2.4-1.8-1.2-1.6L59 38a5.138 5.138 0 01-6 0l-.11-.082A24.632 24.632 0 0063 17.96zm-2.008.6a23.258 23.258 0 01-.131 1.855 73.04 73.04 0 01-27.362 6.5l2.1-2.1a75.275 75.275 0 0025.393-6.259v.004zm-17.7-5.435a.43.43 0 01.707.293.411.411 0 01-.121.293L25 32.586 24.414 32l18.878-18.875zM7.554 23a132.283 132.283 0 0021.051 1.984l-1.958 1.958A130.12 130.12 0 017.9 25.027l-3.953-.7c-.17-.516-.343-1.03-.475-1.56l-.129-.517 4.211.75zM4.79 26.51l2.764.49a131.9 131.9 0 0017.178 1.857L22.586 31H21a1 1 0 00-.707.293L15.5 36.084a7.2 7.2 0 00-2.022.428A22.885 22.885 0 014.79 26.51zm13.273 9.841l3.351-3.35h1.172L24 34.413v1.172l-2.639 2.64c-.121-.075-.247-.14-.361-.225l-.8-.6a6.677 6.677 0 00-2.137-1.05zm33.014.388a7.216 7.216 0 00-7.277.661l-.8.6a5.138 5.138 0 01-6 0l-.8-.6a7.189 7.189 0 00-8.4 0l-.8.6a5.062 5.062 0 01-3.515.928l2.222-2.222A1 1 0 0026 36v-1.586l5.429-5.429a75.015 75.015 0 0029.071-6.24 22.615 22.615 0 01-9.423 13.994z" fill="#406844"/></symbol><symbol fill="none" xmlns="http://www.w3.org/2000/svg" viewBox="0 0 64 64" id="chan"><g clip-path="url(#clip0)" fill="#406844"><path d="M63.715 23.706a1.25 1.25 0 00-.965-.456h-7.875a1.25 1.25 0 00-1.226 1.005L51.6 34.5h-3.802c2.633-4.234 2.522-9.727-.456-13.872 1.023-2.44 2.89-4.024 7.644-8.801 1.266-1.255 2.701-2.678 4.414-4.39a1.25 1.25 0 000-1.767L54.096.366a1.25 1.25 0 00-1.768 0c-1.87 1.87-3.454 3.472-4.726 4.758-.013.005-4.762 5.463-9.541.686a1.25 1.25 0 10-1.767 1.768 8.725 8.725 0 006.187 2.558h.042c-1.405 1.276-2.263 1.837-3.37 2.303a12.37 12.37 0 00-3.679-1.809 1.25 1.25 0 10-.718 2.395 9.89 9.89 0 013.41 1.804 1.25 1.25 0 001.22.203c2.759-1.018 3.982-2.09 8.414-6.555l3.493 3.493c-4.453 4.431-5.522 5.656-6.543 8.425a1.25 1.25 0 00.202 1.22c3.08 3.796 2.942 9.245-.257 12.885H41.02a13.815 13.815 0 01-1.215-10.155 1.25 1.25 0 00-2.415-.644 16.445 16.445 0 00-.401 1.995 6.277 6.277 0 01-6.881-1.325 1.25 1.25 0 10-1.768 1.768c2.233 2.235 5.507 3.066 8.507 2.248a16.424 16.424 0 001.39 6.113H22.623c.131-1.942.41-4.259.998-6.092a1.25 1.25 0 00-.625-1.496 13.646 13.646 0 01-2.572-1.696l1.73-1.729a9.913 9.913 0 013.41-2.238 1.25 1.25 0 00.108-2.28 13.684 13.684 0 01-2.596-1.708c1.683-1.673 1.808-1.831 2.255-2.219a1.25 1.25 0 10-1.638-1.888c-.571.495-.7.668-3.308 3.262a1.25 1.25 0 000 1.768 16.354 16.354 0 002.15 1.81 12.48 12.48 0 00-2.15 1.726l-2.652 2.651a1.25 1.25 0 000 1.769 16.289 16.289 0 003.222 2.502c-.482 1.902-.721 4.053-.837 5.858H12.4l-2.05-10.245a1.25 1.25 0 00-1.225-1.005H1.25a1.25 1.25 0 00-1.227 1.49l7.5 38.25A1.25 1.25 0 008.75 64h46.5a1.25 1.25 0 001.226-1.01l7.5-38.25a1.25 1.25 0 00-.261-1.034zM53.213 3.018l3.534 3.535c-1.327 1.324-3.68 3.655-3.68 3.655L49.56 6.7c1.073-1.084 2.261-2.285 3.654-3.682zM55.9 25.75h5.33l-1.715 8.75H54.15l1.75-8.75zm1.41 20H51.9L53.65 37h5.375l-1.716 8.75zm-1.545 7.875H8.235L7.18 48.25h49.64l-1.054 5.375zM40.931 61.5l.731-5.375h5.702L46.34 61.5h-5.409zm-7.681 0v-5.375h5.89l-.732 5.375H33.25zm-7.659 0l-.73-5.375h5.889V61.5h-5.16zm-7.932 0l-1.024-5.375h5.702l.731 5.375H17.66zM4.974 37h5.376l1.75 8.75H6.69L4.974 37zm17.217 0h8.559v8.75h-7.31L22.191 37zm19.618 0l-1.25 8.75h-7.31V37h8.56zm7.541 8.75h-6.267l1.25-8.75H51.1l-1.75 8.75zM19.666 37l1.25 8.75h-6.267L12.9 37h6.767zM8.1 25.75l1.75 8.75H4.484L2.77 25.75H8.1zm.624 30.375h5.366l1.024 5.375H9.778l-1.054-5.375zM54.221 61.5h-5.336l1.024-5.375h5.366L54.221 61.5z"/><path d="M29.5 12.75a1.25 1.25 0 100-2.5 1.25 1.25 0 000 2.5z"/></g><defs><clipPath id="clip0"><path fill="#fff" d="M0 0h64v64H0z"/></clipPath></defs></symbol><symbol fill="none" xmlns="http://www.w3.org/2000/svg" viewBox="0 0 64 64" id="dish"><path d="M57.044 41.8a3.508 3.508 0 00-.192-.29 4.127 4.127 0 00-2.704-1.682 4.134 4.134 0 00-3.097.723l-11.926 8.516H26.667a1.068 1.068 0 010-2.133H33.6a3.737 3.737 0 003.731-3.854 3.746 3.746 0 00-3.816-3.613H19.638a5.353 5.353 0 00-3.371 1.238l-5.216 4.342a1.07 1.07 0 00-.384.82v12.8c0 .59.478 1.066 1.066 1.066H38.2a7.484 7.484 0 004.753-1.716l12.93-10.684a4.192 4.192 0 001.162-5.533zm-2.458 3.842L41.593 56.373a5.352 5.352 0 01-3.396 1.227H12.8V46.367l4.833-4.024a3.209 3.209 0 012.015-.743l13.9-.001A1.63 1.63 0 0135.2 43.2c0 .882-.718 1.6-1.6 1.6h-6.933a3.204 3.204 0 00-3.2 3.2c0 1.764 1.435 3.2 3.2 3.2h12.8c.221 0 .438-.07.622-.198l12.204-8.716a2.02 2.02 0 011.51-.353 2.018 2.018 0 011.41.96c.54.904.29 2.091-.627 2.749z" fill="#406844"/><path d="M11.701 43.733H0v2.134h10.635v16H0V64h11.701c.59 0 1.067-.477 1.067-1.067V44.8c0-.59-.478-1.067-1.067-1.067z" fill="#406844"/><path d="M5.333 53.334a3.204 3.204 0 00-3.2 3.2c0 1.764 1.436 3.2 3.2 3.2 1.765 0 3.2-1.436 3.2-3.2 0-1.765-1.435-3.2-3.2-3.2zm0 4.266a1.068 1.068 0 010-2.133 1.068 1.068 0 010 2.133zm57.6-24.533H1.067c-.59 0-1.067.476-1.067 1.066C0 38.25 3.35 41.6 7.467 41.6h49.066C60.65 41.6 64 38.25 64 34.133c0-.59-.477-1.066-1.067-1.066zm-6.4 6.4H7.467A5.342 5.342 0 012.24 35.2h59.518a5.342 5.342 0 01-5.226 4.267z" fill="#406844"/><path d="M32 5.333c-15.292 0-27.733 12.442-27.733 27.734v1.066c0 .59.478 1.067 1.066 1.067h53.334c.59 0 1.066-.477 1.066-1.067v-1.066c0-15.292-12.44-27.734-27.733-27.734zM6.4 33.066c0-14.115 11.485-25.6 25.6-25.6 14.115 0 25.6 11.485 25.6 25.6H6.4z" fill="#406844"/><path d="M14.456 17.5a23.843 23.843 0 00-2.056 2.67l1.778 1.178a21.81 21.81 0 011.871-2.43l-1.595-1.416zM32 9.6a23.382 23.382 0 00-16.059 6.37l1.462 1.554A21.254 21.254 0 0132 11.734V9.6zM35.2 0h-6.4v2.133h6.4V0z" fill="#406844"/><path d="M33.067 1.067h-2.134V6.4h2.134V1.067z" fill="#406844"/></symbol><symbol fill="none" xmlns="http://www.w3.org/2000/svg" viewBox="0 0 64 64" id="drinks"><g clip-path="url(#clip0)" fill="#406844"><path d="M17.07 47.44h-2.133v2.133h2.133V47.44zm-9.6 3.2H5.338v2.133h2.134V50.64zm17.066 2.133h-2.133v2.133h2.133v-2.133zm15.999-29.865h-2.133v2.134h2.133v-2.134zm7.466 1.067h-2.133v2.133h2.133v-2.133zm-2.133 5.333h-2.133v2.133h2.133v-2.133zm9.599 0h-2.133v2.133h2.133v-2.133zm3.2-6.4h-2.133v2.134h2.133v-2.134z"/><path d="M59.326 60.24l-1.832-3.677a1.066 1.066 0 00-.96-.59h-7.466V37.78c7.736-.61 13.865-7.755 13.865-16.473v-.455a72.907 72.907 0 00-.03-1.179c-.107-3.216-.456-9.33-1.067-10.995a1.066 1.066 0 00-1.01-.702h-4.882l.454-2.385 5.806-1.937-.674-2.026-6.4 2.133a1.066 1.066 0 00-.71.81l-.649 3.405H35.175c-.447 0-.847.278-1.001.698-.614 1.666-.96 7.778-1.067 10.995-.015.453-.026.853-.03 1.179v.456c0 8.718 6.129 15.863 13.865 16.473v18.196h-3.038c2.368-5.386-.08-11.67-5.465-14.038a10.651 10.651 0 00-9.36.385l.79-8.649a1.067 1.067 0 00-1.067-1.163H1.071A1.067 1.067 0 00.004 33.67l2.134 23.42v4.215c0 .589.477 1.066 1.066 1.066H26.67c.59 0 1.067-.477 1.067-1.066v-1.078a10.611 10.611 0 006.4 2.144H64V60.24h-4.674zm-33.723 0H4.27v-2.134h21.332v2.133zm.092-4.267H4.178l-.867-9.6h5.625a3.2 3.2 0 001.28 4.124l5.546 3.2a3.178 3.178 0 001.6.426 3.18 3.18 0 002.776-1.6l3.2-5.546c.107-.192.193-.394.258-.604h2.972l-.873 9.6zm-4.48-9.6L18.28 51.46c-.294.51-.946.684-1.456.39l-5.546-3.2a1.067 1.067 0 01-.39-1.456l.476-.82h9.853zM12.59 44.24l1.493-2.59a1.067 1.067 0 011.458-.39l5.168 2.98H12.59zm14.167 0h-3.229a3.16 3.16 0 00-1.373-1.627l-5.546-3.2a3.2 3.2 0 00-4.371 1.17l-.002.003-2.105 3.654H3.11l-.867-9.6H27.63l-.872 9.6zm28.78-34.13H60c.395 2.828.638 5.677.728 8.532h-6.816l1.626-8.533zm-19.535 0h17.363l-1.625 8.532H35.275c.09-2.855.332-5.704.727-8.533zm-.8 11.198c0-.147 0-.326.005-.533h16.127l-1.18 6.2 2.094.4 1.258-6.6H60.8c0 .207.006.386.006.534C60.8 29.248 55.059 35.707 48 35.707s-12.8-6.46-12.8-14.4zm4.266 37.07a8.533 8.533 0 01-11.732-1.046v-.242l1.096-12.058a8.533 8.533 0 0110.636 13.345zm1.04 1.861a10.748 10.748 0 002.16-2.16v.027h13.207l1.066 2.133H40.507z"/><path d="M38.088 48.636a1.089 1.089 0 01-1.508-.001 1.067 1.067 0 010-1.508l-1.508-1.508a3.2 3.2 0 104.525 4.525l-1.509-1.508z"/></g><defs><clipPath id="clip0"><path fill="#fff" d="M0 0h64v64H0z"/></clipPath></defs></symbol></svg>