<svg width="64" height="64" fill="none" xmlns="http://www.w3.org/2000/svg"><path d="M28.2 45.6l.8-.6a5.138 5.138 0 016 0l.8.6a7 7 0 008.4 0l.8-.6a5.028 5.028 0 013-1v-2a7.04 7.04 0 00-4.2 1.4l-.8.6a5.138 5.138 0 01-6 0l-.8-.6a7.19 7.19 0 00-8.4 0l-.8.6a5.138 5.138 0 01-6 0l-.8-.6A7.04 7.04 0 0016 42v2a5.028 5.028 0 013 1l.8.6a7.19 7.19 0 008.4 0zM59 50a5.138 5.138 0 01-6 0l-.8-.6a7.189 7.189 0 00-8.4 0l-.8.6a5.138 5.138 0 01-6 0l-.8-.6a7.189 7.189 0 00-8.4 0l-.8.6a5.138 5.138 0 01-6 0l-.8-.6a7.189 7.189 0 00-8.4 0l-.8.6a5.138 5.138 0 01-6 0l-2.4-1.8-1.2 1.6 2.4 1.8a7.19 7.19 0 008.4 0l.8-.6a5.138 5.138 0 016 0l.8.6a7.19 7.19 0 008.4 0l.8-.6a5.138 5.138 0 016 0l.8.6a7.19 7.19 0 008.4 0l.8-.6a5.138 5.138 0 016 0l.8.6a7 7 0 008.4 0l2.4-1.8-1.2-1.6L59 50zm4-32.04V17a1 1 0 00-1.423-.906 73.263 73.263 0 01-23.783 6.526l7.5-7.5a2.414 2.414 0 00-3.414-3.414L30.586 23h-.139A130.126 130.126 0 017.9 21.027l-5.726-1.01a.99.99 0 00-1.137.731 1 1 0 00-.002.493l.5 2.011a24.909 24.909 0 009.974 14.366L11 38a5.138 5.138 0 01-6 0l-2.4-1.8-1.2 1.6 2.4 1.8a7.19 7.19 0 008.4 0l.8-.6a5.138 5.138 0 016 0l.8.6a7.19 7.19 0 008.4 0l.8-.6a5.138 5.138 0 016 0l.8.6a7.19 7.19 0 008.4 0l.8-.6a5.138 5.138 0 016 0l.8.6a7 7 0 008.4 0l2.4-1.8-1.2-1.6L59 38a5.138 5.138 0 01-6 0l-.11-.082A24.632 24.632 0 0063 17.96zm-2.008.6a23.258 23.258 0 01-.131 1.855 73.04 73.04 0 01-27.362 6.5l2.1-2.1a75.275 75.275 0 0025.393-6.259v.004zm-17.7-5.435a.43.43 0 01.707.293.411.411 0 01-.121.293L25 32.586 24.414 32l18.878-18.875zM7.554 23a132.283 132.283 0 0021.051 1.984l-1.958 1.958A130.12 130.12 0 017.9 25.027l-3.953-.7c-.17-.516-.343-1.03-.475-1.56l-.129-.517 4.211.75zM4.79 26.51l2.764.49a131.9 131.9 0 0017.178 1.857L22.586 31H21a1 1 0 00-.707.293L15.5 36.084a7.2 7.2 0 00-2.022.428A22.885 22.885 0 014.79 26.51zm13.273 9.841l3.351-3.35h1.172L24 34.413v1.172l-2.639 2.64c-.121-.075-.247-.14-.361-.225l-.8-.6a6.677 6.677 0 00-2.137-1.05zm33.014.388a7.216 7.216 0 00-7.277.661l-.8.6a5.138 5.138 0 01-6 0l-.8-.6a7.189 7.189 0 00-8.4 0l-.8.6a5.062 5.062 0 01-3.515.928l2.222-2.222A1 1 0 0026 36v-1.586l5.429-5.429a75.015 75.015 0 0029.071-6.24 22.615 22.615 0 01-9.423 13.994z" fill="#406844"/></svg>