<svg width="64" height="64" fill="none" xmlns="http://www.w3.org/2000/svg"><g clip-path="url(#clip0)" fill="#406844"><path d="M63.715 23.706a1.25 1.25 0 00-.965-.456h-7.875a1.25 1.25 0 00-1.226 1.005L51.6 34.5h-3.802c2.633-4.234 2.522-9.727-.456-13.872 1.023-2.44 2.89-4.024 7.644-8.801 1.266-1.255 2.701-2.678 4.414-4.39a1.25 1.25 0 000-1.767L54.096.366a1.25 1.25 0 00-1.768 0c-1.87 1.87-3.454 3.472-4.726 4.758-.013.005-4.762 5.463-9.541.686a1.25 1.25 0 10-1.767 1.768 8.725 8.725 0 006.187 2.558h.042c-1.405 1.276-2.263 1.837-3.37 2.303a12.37 12.37 0 00-3.679-1.809 1.25 1.25 0 10-.718 2.395 9.89 9.89 0 013.41 1.804 1.25 1.25 0 001.22.203c2.759-1.018 3.982-2.09 8.414-6.555l3.493 3.493c-4.453 4.431-5.522 5.656-6.543 8.425a1.25 1.25 0 00.202 1.22c3.08 3.796 2.942 9.245-.257 12.885H41.02a13.815 13.815 0 01-1.215-10.155 1.25 1.25 0 00-2.415-.644 16.445 16.445 0 00-.401 1.995 6.277 6.277 0 01-6.881-1.325 1.25 1.25 0 10-1.768 1.768c2.233 2.235 5.507 3.066 8.507 2.248a16.424 16.424 0 001.39 6.113H22.623c.131-1.942.41-4.259.998-6.092a1.25 1.25 0 00-.625-1.496 13.646 13.646 0 01-2.572-1.696l1.73-1.729a9.913 9.913 0 013.41-2.238 1.25 1.25 0 00.108-2.28 13.684 13.684 0 01-2.596-1.708c1.683-1.673 1.808-1.831 2.255-2.219a1.25 1.25 0 10-1.638-1.888c-.571.495-.7.668-3.308 3.262a1.25 1.25 0 000 1.768 16.354 16.354 0 002.15 1.81 12.48 12.48 0 00-2.15 1.726l-2.652 2.651a1.25 1.25 0 000 1.769 16.289 16.289 0 003.222 2.502c-.482 1.902-.721 4.053-.837 5.858H12.4l-2.05-10.245a1.25 1.25 0 00-1.225-1.005H1.25a1.25 1.25 0 00-1.227 1.49l7.5 38.25A1.25 1.25 0 008.75 64h46.5a1.25 1.25 0 001.226-1.01l7.5-38.25a1.25 1.25 0 00-.261-1.034zM53.213 3.018l3.534 3.535c-1.327 1.324-3.68 3.655-3.68 3.655L49.56 6.7c1.073-1.084 2.261-2.285 3.654-3.682zM55.9 25.75h5.33l-1.715 8.75H54.15l1.75-8.75zm1.41 20H51.9L53.65 37h5.375l-1.716 8.75zm-1.545 7.875H8.235L7.18 48.25h49.64l-1.054 5.375zM40.931 61.5l.731-5.375h5.702L46.34 61.5h-5.409zm-7.681 0v-5.375h5.89l-.732 5.375H33.25zm-7.659 0l-.73-5.375h5.889V61.5h-5.16zm-7.932 0l-1.024-5.375h5.702l.731 5.375H17.66zM4.974 37h5.376l1.75 8.75H6.69L4.974 37zm17.217 0h8.559v8.75h-7.31L22.191 37zm19.618 0l-1.25 8.75h-7.31V37h8.56zm7.541 8.75h-6.267l1.25-8.75H51.1l-1.75 8.75zM19.666 37l1.25 8.75h-6.267L12.9 37h6.767zM8.1 25.75l1.75 8.75H4.484L2.77 25.75H8.1zm.624 30.375h5.366l1.024 5.375H9.778l-1.054-5.375zM54.221 61.5h-5.336l1.024-5.375h5.366L54.221 61.5z"/><path d="M29.5 12.75a1.25 1.25 0 100-2.5 1.25 1.25 0 000 2.5z"/></g><defs><clipPath id="clip0"><path fill="#fff" d="M0 0h64v64H0z"/></clipPath></defs></svg>