<svg width="64" height="64" fill="none" xmlns="http://www.w3.org/2000/svg"><path d="M57.044 41.8a3.508 3.508 0 00-.192-.29 4.127 4.127 0 00-2.704-1.682 4.134 4.134 0 00-3.097.723l-11.926 8.516H26.667a1.068 1.068 0 010-2.133H33.6a3.737 3.737 0 003.731-3.854 3.746 3.746 0 00-3.816-3.613H19.638a5.353 5.353 0 00-3.371 1.238l-5.216 4.342a1.07 1.07 0 00-.384.82v12.8c0 .59.478 1.066 1.066 1.066H38.2a7.484 7.484 0 004.753-1.716l12.93-10.684a4.192 4.192 0 001.162-5.533zm-2.458 3.842L41.593 56.373a5.352 5.352 0 01-3.396 1.227H12.8V46.367l4.833-4.024a3.209 3.209 0 012.015-.743l13.9-.001A1.63 1.63 0 0135.2 43.2c0 .882-.718 1.6-1.6 1.6h-6.933a3.204 3.204 0 00-3.2 3.2c0 1.764 1.435 3.2 3.2 3.2h12.8c.221 0 .438-.07.622-.198l12.204-8.716a2.02 2.02 0 011.51-.353 2.018 2.018 0 011.41.96c.54.904.29 2.091-.627 2.749z" fill="#406844"/><path d="M11.701 43.733H0v2.134h10.635v16H0V64h11.701c.59 0 1.067-.477 1.067-1.067V44.8c0-.59-.478-1.067-1.067-1.067z" fill="#406844"/><path d="M5.333 53.334a3.204 3.204 0 00-3.2 3.2c0 1.764 1.436 3.2 3.2 3.2 1.765 0 3.2-1.436 3.2-3.2 0-1.765-1.435-3.2-3.2-3.2zm0 4.266a1.068 1.068 0 010-2.133 1.068 1.068 0 010 2.133zm57.6-24.533H1.067c-.59 0-1.067.476-1.067 1.066C0 38.25 3.35 41.6 7.467 41.6h49.066C60.65 41.6 64 38.25 64 34.133c0-.59-.477-1.066-1.067-1.066zm-6.4 6.4H7.467A5.342 5.342 0 012.24 35.2h59.518a5.342 5.342 0 01-5.226 4.267z" fill="#406844"/><path d="M32 5.333c-15.292 0-27.733 12.442-27.733 27.734v1.066c0 .59.478 1.067 1.066 1.067h53.334c.59 0 1.066-.477 1.066-1.067v-1.066c0-15.292-12.44-27.734-27.733-27.734zM6.4 33.066c0-14.115 11.485-25.6 25.6-25.6 14.115 0 25.6 11.485 25.6 25.6H6.4z" fill="#406844"/><path d="M14.456 17.5a23.843 23.843 0 00-2.056 2.67l1.778 1.178a21.81 21.81 0 011.871-2.43l-1.595-1.416zM32 9.6a23.382 23.382 0 00-16.059 6.37l1.462 1.554A21.254 21.254 0 0132 11.734V9.6zM35.2 0h-6.4v2.133h6.4V0z" fill="#406844"/><path d="M33.067 1.067h-2.134V6.4h2.134V1.067z" fill="#406844"/></svg>