<svg width="64" height="64" fill="none" xmlns="http://www.w3.org/2000/svg"><g clip-path="url(#clip0)" fill="#406844"><path d="M17.07 47.44h-2.133v2.133h2.133V47.44zm-9.6 3.2H5.338v2.133h2.134V50.64zm17.066 2.133h-2.133v2.133h2.133v-2.133zm15.999-29.865h-2.133v2.134h2.133v-2.134zm7.466 1.067h-2.133v2.133h2.133v-2.133zm-2.133 5.333h-2.133v2.133h2.133v-2.133zm9.599 0h-2.133v2.133h2.133v-2.133zm3.2-6.4h-2.133v2.134h2.133v-2.134z"/><path d="M59.326 60.24l-1.832-3.677a1.066 1.066 0 00-.96-.59h-7.466V37.78c7.736-.61 13.865-7.755 13.865-16.473v-.455a72.907 72.907 0 00-.03-1.179c-.107-3.216-.456-9.33-1.067-10.995a1.066 1.066 0 00-1.01-.702h-4.882l.454-2.385 5.806-1.937-.674-2.026-6.4 2.133a1.066 1.066 0 00-.71.81l-.649 3.405H35.175c-.447 0-.847.278-1.001.698-.614 1.666-.96 7.778-1.067 10.995-.015.453-.026.853-.03 1.179v.456c0 8.718 6.129 15.863 13.865 16.473v18.196h-3.038c2.368-5.386-.08-11.67-5.465-14.038a10.651 10.651 0 00-9.36.385l.79-8.649a1.067 1.067 0 00-1.067-1.163H1.071A1.067 1.067 0 00.004 33.67l2.134 23.42v4.215c0 .589.477 1.066 1.066 1.066H26.67c.59 0 1.067-.477 1.067-1.066v-1.078a10.611 10.611 0 006.4 2.144H64V60.24h-4.674zm-33.723 0H4.27v-2.134h21.332v2.133zm.092-4.267H4.178l-.867-9.6h5.625a3.2 3.2 0 001.28 4.124l5.546 3.2a3.178 3.178 0 001.6.426 3.18 3.18 0 002.776-1.6l3.2-5.546c.107-.192.193-.394.258-.604h2.972l-.873 9.6zm-4.48-9.6L18.28 51.46c-.294.51-.946.684-1.456.39l-5.546-3.2a1.067 1.067 0 01-.39-1.456l.476-.82h9.853zM12.59 44.24l1.493-2.59a1.067 1.067 0 011.458-.39l5.168 2.98H12.59zm14.167 0h-3.229a3.16 3.16 0 00-1.373-1.627l-5.546-3.2a3.2 3.2 0 00-4.371 1.17l-.002.003-2.105 3.654H3.11l-.867-9.6H27.63l-.872 9.6zm28.78-34.13H60c.395 2.828.638 5.677.728 8.532h-6.816l1.626-8.533zm-19.535 0h17.363l-1.625 8.532H35.275c.09-2.855.332-5.704.727-8.533zm-.8 11.198c0-.147 0-.326.005-.533h16.127l-1.18 6.2 2.094.4 1.258-6.6H60.8c0 .207.006.386.006.534C60.8 29.248 55.059 35.707 48 35.707s-12.8-6.46-12.8-14.4zm4.266 37.07a8.533 8.533 0 01-11.732-1.046v-.242l1.096-12.058a8.533 8.533 0 0110.636 13.345zm1.04 1.861a10.748 10.748 0 002.16-2.16v.027h13.207l1.066 2.133H40.507z"/><path d="M38.088 48.636a1.089 1.089 0 01-1.508-.001 1.067 1.067 0 010-1.508l-1.508-1.508a3.2 3.2 0 104.525 4.525l-1.509-1.508z"/></g><defs><clipPath id="clip0"><path fill="#fff" d="M0 0h64v64H0z"/></clipPath></defs></svg>