<svg width="64" height="64" fill="none" xmlns="http://www.w3.org/2000/svg"><path d="M62.933 19.2h-3.2v-1.6A3.733 3.733 0 0056 13.867a3.692 3.692 0 00-1.6.374v-1.44a4.267 4.267 0 00-8.533 0v6.4H41.6v-1.068a3.186 3.186 0 00-5.333-2.368 3.151 3.151 0 00-4.267 0 3.151 3.151 0 00-4.267 0 3.186 3.186 0 00-5.333 2.368V19.2h-4.267v-6.4a4.267 4.267 0 10-8.533 0v1.441a3.692 3.692 0 00-1.6-.374A3.733 3.733 0 004.267 17.6v1.6h-3.2C.477 19.2 0 19.678 0 20.267v6.4c0 .589.478 1.066 1.067 1.066h3.2v1.6A3.733 3.733 0 008 33.067a3.695 3.695 0 001.6-.375v1.441a4.267 4.267 0 008.533 0v-6.4h2.134V31.3a5.3 5.3 0 001.562 3.771l2.704 2.705v17.692h2.134V37.333c0-.282-.113-.554-.313-.754l-3.016-3.017a3.218 3.218 0 01-.938-2.263v-6.766h6.248a1.28 1.28 0 011.032.5l.023.034a.97.97 0 01.148.435.918.918 0 010 .202.868.868 0 01-.014.106c-.024.113-.066.22-.123.32-.186.33-.535.535-.914.537h-3.2c-.59 0-1.067.477-1.067 1.066v2.134c0 .46.294.867.73 1.012l2.347.784c1.905.633 3.323 3.516 3.323 5.67h2.134c0-2.934-1.826-6.711-4.778-7.694l-1.622-.541V28.8H28.8a3.182 3.182 0 002.347-1.067h9.386v3.912a3.218 3.218 0 01-.64 1.92l-2.346 3.129a1.062 1.062 0 00-.214.64v18.133h2.134V37.689l2.133-2.844a5.364 5.364 0 001.067-3.2v-3.912h3.2v6.4a4.267 4.267 0 108.533 0v-1.44a3.695 3.695 0 001.6.374 3.733 3.733 0 003.733-3.734v-1.6h3.2c.59 0 1.067-.477 1.067-1.066v-6.4c0-.59-.478-1.067-1.067-1.067zM4.267 25.6H2.133v-4.267h2.134V25.6zM9.6 29.333a1.6 1.6 0 01-3.2 0V17.6a1.6 1.6 0 013.2 0v11.733zm6.4 4.8a2.133 2.133 0 11-4.267 0V12.8a2.133 2.133 0 114.267 0v21.333zM21.333 22.4c-.589 0-1.066.478-1.066 1.067V25.6h-2.134v-4.267H22.4c.001.202.022.403.06.601.012.063.033.12.048.181.024.095.042.193.074.285h-1.249zm5.334-1.067a1.067 1.067 0 01-2.134 0v-3.2a1.067 1.067 0 012.134 0v3.2zm4.266 0a1.067 1.067 0 01-2.133 0v-3.2a1.067 1.067 0 012.133 0v3.2zm6.4-3.2a1.067 1.067 0 012.134 0v3.2a1.067 1.067 0 01-2.134 0v-3.2zm-4.266 0a1.067 1.067 0 012.133 0v3.2a1.067 1.067 0 01-2.133 0v-3.2zm12.8 7.467H32v-.03c0-.212-.023-.424-.066-.631-.007-.029-.02-.056-.027-.086-.019-.077-.047-.15-.071-.226a3.08 3.08 0 00-.163-.399c-.031-.064-.046-.136-.081-.198a.472.472 0 00.035-.027c.049-.032.091-.07.138-.106.08-.06.165-.116.24-.183.061.056.133.1.199.15.066.05.13.106.202.151.101.062.205.119.312.17.072.035.14.076.213.106.125.048.252.088.382.119.067.018.13.043.2.057.41.084.833.084 1.243 0 .07-.014.133-.04.2-.057.13-.031.257-.071.382-.119.075-.03.144-.072.213-.106.107-.051.211-.108.313-.17.07-.047.134-.1.201-.151.067-.052.138-.094.2-.15.061.056.133.1.199.15.066.05.131.106.203.151.1.062.204.119.311.17.073.035.14.076.213.106.125.048.253.088.382.119.068.018.13.043.2.057a3.191 3.191 0 003.827-3.134h4.267V25.6zm6.4 8.533a2.133 2.133 0 11-4.267 0V12.8a2.133 2.133 0 114.267 0v21.333zm5.333-4.8a1.6 1.6 0 01-3.2 0V17.6a1.6 1.6 0 013.2 0v11.733zm4.267-3.733h-2.134v-4.267h2.134V25.6z" fill="#406844"/></svg>