<svg width="43" height="84" fill="none" xmlns="http://www.w3.org/2000/svg"><path d="M32.718 53.375c5.277 0 9.556-4.268 9.556-9.531v-1.907h-1.911c-3.167 0-5.953 1.556-7.693 3.922a48.746 48.746 0 00-.497-5.418l.335-.09c5.097-1.362 8.122-6.587 6.758-11.673l-.495-1.842-1.846.494c-3.064.82-5.356 3.044-6.418 5.785a49.967 49.967 0 00-1.885-5.114l.304-.175c4.57-2.633 6.137-8.462 3.498-13.02l-.956-1.651-1.655.953c-2.744 1.58-4.379 4.318-4.696 7.236a49.514 49.514 0 00-3.14-4.453l.24-.24a9.512 9.512 0 000-13.479l-1.35-1.348-1.352 1.348c-2.234 2.228-3.102 5.284-2.66 8.178l-.036-.036-1.33 1.43C15.17 5.655 9.325 0 2.139 0H.227c0 7.37 5.99 13.344 13.379 13.344h1.326l-.62.667c-2.934-.48-6.048.387-8.31 2.644L4.65 18.003l1.351 1.347c3.643 3.634 9.48 3.693 13.23.233a45.987 45.987 0 012.517 3.565c-2.663-1.12-5.79-1.06-8.484.493l-1.655.953.955 1.651c2.575 4.447 8.19 6.01 12.706 3.645a45.596 45.596 0 011.508 4.081c-2.28-1.763-5.311-2.508-8.314-1.708l-1.846.494.495 1.841c1.332 4.962 6.355 7.925 11.334 6.8.2 1.437.336 2.884.397 4.342-1.743-2.297-4.482-3.803-7.593-3.803H19.34v1.907c0 5.143 4.091 9.304 9.2 9.495a45.86 45.86 0 01-.745 4.325C26.71 54.98 24.45 52.805 21.432 52l-1.846-.494-.495 1.841c-1.336 4.974 1.544 10.06 6.443 11.556a45.022 45.022 0 01-1.862 3.99c-.348-2.877-1.968-5.566-4.676-7.126l-1.655-.953-.956 1.651c-2.578 4.453-1.122 10.1 3.209 12.812a46.341 46.341 0 01-8.564 8.599h5.91a49.773 49.773 0 005.97-6.647l.283.162c4.57 2.632 10.414 1.07 13.053-3.489l.956-1.65-1.655-.953c-2.726-1.57-5.894-1.619-8.576-.46a48.646 48.646 0 002.27-4.91l.297.08c5.097 1.363 10.338-1.655 11.704-6.74l.495-1.842-1.846-.494c-3.047-.814-6.127-.04-8.419 1.782.397-1.751.703-3.534.91-5.34h.336v.001z" fill="#406844"/></svg>