<svg width="111" height="134" fill="none" xmlns="http://www.w3.org/2000/svg"><path d="M1.038 80.453l23.71-8.791 10.256 4.395v2.37l-10.256-3.834-23.71 5.86z" fill="#fff"/><path d="M1.038 75.093l23.566-9.94 10.4 4.834v2.536L24.67 68.255 1.038 75.093z" fill="#fff"/><path d="M1.038 69.752l23.416-11.089 10.549 5.274v2.704l-10.411-4.702-23.556 7.814h.002z" fill="#fff"/><path d="M1.038 64.387l23.27-12.238 10.696 5.717v2.868L24.52 55.601 1.038 64.387z" fill="#fff"/><path d="M1.038 59.046L24.16 45.66l10.844 6.155v3.03l-10.562-5.56-23.404 9.761z" fill="#fff"/><path d="M1.038 53.697L24.016 39.16l10.988 6.594v3.197l-10.64-5.995-23.326 10.74zm30.819-16.534l23.044-18.248 11.056 7.591v3.464l-10.79-6.527-23.31 13.72z" fill="#fff"/><path d="M31.674 42.648l23.31-17.15 10.973 7.193v3.38l-10.723-6.16-23.56 12.737z" fill="#fff"/><path d="M31.49 48.151l23.577-16.05 10.89 6.793v3.297L55.3 36.397 31.49 48.152z" fill="#fff"/><path d="M31.308 53.636L55.15 38.685l10.806 6.394v3.213l-10.589-5.428-24.059 10.772z" fill="#fff"/><path d="M31.125 59.141l24.109-13.853 10.723 5.994v3.13l-10.523-5.06-24.31 9.789z" fill="#fff"/><path d="M30.941 64.626l24.376-12.754 10.64 5.594v3.047L55.5 55.817l-24.56 8.809h.001z" fill="#fff"/><path d="M30.76 70.13L55.4 58.476l10.557 5.193v2.964l-10.39-4.328L30.76 70.13zm-.185 5.494l24.909-10.556 10.473 4.796v2.88l-10.323-3.963-25.059 6.843z" fill="#fff"/><path d="M30.393 81.119l25.174-9.457 10.39 4.395v2.798L55.7 75.258 30.393 81.12v-.001zm33.966-60.472L87.401 0l22.644 20.646L87.203 4.662 64.359 20.647z" fill="#fff"/><path d="M64.358 26.146L87.385 6.6l22.611 19.547L87.203 11.15 64.358 26.146z" fill="#fff"/><path d="M64.358 31.631l23.005-18.443 22.589 18.443-22.75-13.997L64.358 31.63z" fill="#fff"/><path d="M64.358 37.13l22.989-17.343 22.555 17.344-22.7-13.01-22.844 13.01z" fill="#fff"/><path d="M64.358 42.625l22.972-16.24 22.522 16.24-22.65-12.01-22.844 12.01z" fill="#fff"/><path d="M64.358 48.126l22.955-15.141 22.489 15.141-22.6-11.023-22.844 11.023z" fill="#fff"/><path d="M64.358 53.62l22.933-14.03 22.467 14.03-22.555-10.024L64.358 53.62z" fill="#fff"/><path d="M64.358 59.12l22.916-12.93 22.433 12.931-22.504-9.035-22.845 9.035z" fill="#fff"/><path d="M64.358 64.625l22.9-11.828 22.4 11.828-22.456-8.037-22.844 8.037z" fill="#fff"/><path d="M64.358 70.124l22.883-10.727 22.367 10.727-22.406-7.048-22.844 7.048z" fill="#fff"/><path d="M64.358 75.62l22.861-9.624 22.344 9.623-22.362-6.05-22.843 6.05z" fill="#fff"/><path d="M64.358 81.109l22.844-8.524 22.311 8.524-22.31-5.062-22.845 5.063v-.001zM111 83.18H0v3.053h111V83.18zm0 47.008H0v3.052h111v-3.052zm-93.372-2.896l-1.73-9.221H5.802l-1.73 9.221h-2.93L8.63 89.18h4.437l7.49 38.112h-2.931zM6.302 115.44h9.096l-4.41-23.578h-.251L6.302 115.44zm18.216 11.852V89.206h4.56l9.722 34.678V89.207h2.806l.15 38.085h-4.46l-9.97-34.754v34.754h-2.808zm31.195-18.993h8.57v8.694c0 .785-.034 1.596-.101 2.431a15.042 15.042 0 01-.401 2.43 9.191 9.191 0 01-.852 2.255 6.297 6.297 0 01-1.478 1.854c-.602.535-1.353.961-2.255 1.278-.885.301-1.954.451-3.207.451h-.026c-1.269 0-2.354-.159-3.256-.475-.903-.335-1.663-.777-2.28-1.329a6.378 6.378 0 01-1.48-1.929 10.865 10.865 0 01-.801-2.356 19.183 19.183 0 01-.375-2.63 49.78 49.78 0 01-.076-2.706v-16.011c0-.918.025-1.837.075-2.756a17 17 0 01.401-2.656c.19-.821.467-1.62.827-2.38a6.1 6.1 0 011.479-1.905c.617-.534 1.37-.96 2.254-1.278.902-.317 1.98-.476 3.232-.476h.026c1.269 0 2.355.168 3.257.501.918.317 1.678.743 2.28 1.278a6.196 6.196 0 011.478 1.88c.367.718.644 1.47.827 2.254.184.786.3 1.596.35 2.43.068.82.101 1.604.101 2.356v.727h-2.881v-.727c0-1.07-.06-2.088-.176-3.057-.1-.986-.342-1.837-.726-2.556a4.223 4.223 0 00-1.629-1.753c-.718-.435-1.68-.652-2.881-.652-1.22 0-2.189.225-2.907.676-.7.451-1.244 1.078-1.629 1.88-.368.785-.61 1.712-.726 2.781a37.419 37.419 0 00-.15 3.483v15.91c0 1.186.042 2.314.125 3.383.1 1.052.325 1.98.677 2.781.347.779.913 1.44 1.628 1.905.718.467 1.712.701 2.982.701 1.153 0 2.08-.2 2.78-.601a4.267 4.267 0 001.655-1.704c.385-.718.642-1.562.776-2.53a23.74 23.74 0 00.2-3.183v-5.988h-5.687v-2.681zm14.383 18.993v-38.06h7.766c1.487 0 2.757.174 3.81.525 1.051.334 1.904.885 2.555 1.654.668.768 1.153 1.77 1.453 3.006.3 1.237.452 2.74.452 4.511v3.633c0 1.821-.434 3.425-1.303 4.81-.852 1.37-2.039 2.389-3.558 3.058a8.396 8.396 0 011.553 1.253c.45.434.827.935 1.127 1.503.318.568.577 1.211.778 1.929.2.718.35 1.537.45 2.455l.652 5.538c.084.785.234 1.537.45 2.255.218.702.469 1.345.753 1.93h-3.057a16.551 16.551 0 01-.627-1.83 17.302 17.302 0 01-.425-2.28l-.652-5.537c-.134-1.12-.385-2.08-.752-2.881-.351-.819-.776-1.487-1.278-2.006-.484-.517-1.002-.902-1.553-1.152-.552-.25-1.078-.375-1.579-.375h-4.16v16.061h-2.855zm13.154-28.39c0-1.587-.142-2.839-.426-3.758-.266-.918-.644-1.612-1.128-2.08a3.024 3.024 0 00-1.678-.902 10.604 10.604 0 00-2.13-.2h-4.936v16.537h4.835c.836 0 1.587-.15 2.256-.451a5.2 5.2 0 001.703-1.278 5.646 5.646 0 001.078-1.879c.266-.718.41-1.495.426-2.33v-3.659zm16.211-10.097c1.287 0 2.38.158 3.283.476.902.317 1.662.752 2.28 1.302a6.066 6.066 0 011.453 1.93 10.1 10.1 0 01.827 2.38c.201.852.326 1.738.375 2.656.051.902.076 1.796.076 2.682v15.985c0 1.382-.083 2.763-.25 4.135-.151 1.353-.511 2.581-1.078 3.683-.552 1.086-1.379 1.972-2.481 2.657-1.102.668-2.597 1.001-4.485 1.001h-.025c-1.27 0-2.363-.159-3.282-.475-.902-.318-1.662-.752-2.28-1.303a6.61 6.61 0 01-1.453-1.93 12.49 12.49 0 01-.827-2.381 16.913 16.913 0 01-.351-2.63 49.676 49.676 0 01-.075-2.706v-16.011c0-.918.024-1.837.075-2.756a19.15 19.15 0 01.376-2.656c.2-.852.483-1.646.851-2.38a6.279 6.279 0 011.454-1.905c.618-.551 1.377-.977 2.28-1.278.902-.317 1.979-.476 3.232-.476h.025zm.05 36.181c1.203 0 2.156-.225 2.857-.676a4.283 4.283 0 001.628-1.854c.368-.802.601-1.738.702-2.807.117-1.068.176-2.221.176-3.457v-15.936c0-1.17-.043-2.28-.126-3.332-.083-1.07-.308-2.006-.677-2.807a4.198 4.198 0 00-1.628-1.904c-.718-.468-1.712-.701-2.982-.701a.35.35 0 01-.15-.026c-1.186.017-2.13.259-2.832.727-.684.45-1.21 1.077-1.578 1.879-.367.785-.602 1.712-.7 2.781a36.315 36.315 0 00-.152 3.433v15.91c0 .786.017 1.546.05 2.281.034.735.108 1.428.227 2.079a8.38 8.38 0 00.525 1.804c.233.535.542.995.927 1.379.4.384.894.685 1.478.902.602.217 1.329.325 2.18.325h.075z" fill="#fff"/></svg>