<svg width="31" height="31" fill="none" xmlns="http://www.w3.org/2000/svg"><path d="M18.286 17.857l-1.185 2.27a.554.554 0 01-.687.261 9.979 9.979 0 01-5.801-5.802.554.554 0 01.262-.688l2.27-1.184-.716-4.056a2.768 2.768 0 00-4.125 2.413C8.31 17.49 13.51 22.69 19.929 22.696a2.768 2.768 0 002.413-4.124l-4.056-.715z" fill="#F0AF9A"/><path d="M15.5 0C6.94 0 0 6.94 0 15.5 0 24.06 6.94 31 15.5 31 24.06 31 31 24.06 31 15.5 30.99 6.944 24.056.01 15.5 0zm4.429 23.804C12.9 23.796 7.204 18.1 7.196 11.07a3.876 3.876 0 016.044-3.21.55.55 0 01.236.362l.83 4.698a.553.553 0 01-.29.587l-2.18 1.14a8.868 8.868 0 004.519 4.52l1.138-2.183a.553.553 0 01.587-.29l4.698.831c.148.026.279.11.362.235a3.875 3.875 0 01-3.211 6.043z" fill="#F0AF9A"/></svg>