<svg width="31" height="31" fill="none" xmlns="http://www.w3.org/2000/svg"><path d="M16.607 12.178a1.107 1.107 0 11-2.214 0 1.107 1.107 0 012.214 0z" fill="#F0AF9A"/><path d="M15.5 7.75a5.542 5.542 0 00-5.536 5.536c0 3.517 4.213 8.303 5.536 9.717 1.322-1.414 5.536-6.203 5.536-9.717A5.541 5.541 0 0015.5 7.75zm0 6.643a2.214 2.214 0 110-4.429 2.214 2.214 0 010 4.429z" fill="#F0AF9A"/><path d="M15.5 0C6.94 0 0 6.94 0 15.5 0 24.06 6.94 31 15.5 31 24.06 31 31 24.06 31 15.5 30.99 6.944 24.056.01 15.5 0zm.391 24.195a.554.554 0 01-.782 0c-.256-.255-6.252-6.305-6.252-10.91a6.643 6.643 0 1113.286 0c0 4.605-5.996 10.655-6.252 10.91z" fill="#F0AF9A"/></svg>