<svg width="43" height="85" viewBox="0 0 43 85" fill="none" xmlns="http://www.w3.org/2000/svg">
<path d="M19.2835 78.2024L19.5664 78.0404C21.3419 80.408 23.3277 82.6383 25.537 84.6875H31.4465C28.1707 82.1655 25.3134 79.268 22.8824 76.0884C27.2112 73.3758 28.6695 67.7295 26.0913 63.2765L25.1357 61.6257L23.4806 62.5788C20.7724 64.1381 19.1517 66.8278 18.8038 69.7044C18.1196 68.4043 17.4966 67.0757 16.9423 65.7146C21.8407 64.2201 24.7229 59.1342 23.385 54.1589L22.89 52.3175L21.0438 52.8112C18.026 53.6175 15.765 55.7926 14.6813 58.4766C14.366 57.0545 14.1156 55.6115 13.936 54.1513C19.0466 53.9607 23.1385 49.7993 23.1385 44.6562V42.75H21.2272C18.1158 42.75 15.377 44.2559 13.6321 46.553C13.6932 45.0947 13.8309 43.6478 14.0296 42.2105C19.0083 43.3352 24.031 40.3729 25.3631 35.4109L25.8581 33.5695L24.0119 33.0758C21.0094 32.2732 17.9782 33.0205 15.6981 34.7838C16.1339 33.3979 16.6422 32.0388 17.2061 30.7025C21.7222 33.0682 27.3374 31.505 29.9118 27.0577L30.8674 25.4069L29.2123 24.4538C26.5175 22.9021 23.3907 22.8411 20.7284 23.9601C21.5063 22.7344 22.351 21.5468 23.2455 20.3954C26.9934 23.8552 32.8302 23.7962 36.4749 20.1628L37.8261 18.8151L36.4749 17.4674C34.212 15.2104 31.0986 14.345 28.1649 14.8234L27.5457 14.1562H28.8721C36.2608 14.1562 42.2506 8.18206 42.2506 0.8125H40.3394C33.1532 0.8125 27.3068 6.46834 26.9915 13.5596L25.6613 12.1299C25.6479 12.1413 25.6364 12.1547 25.6249 12.1661C26.0664 9.27244 25.1987 6.21672 22.9645 3.98831L21.6133 2.64059L20.2621 3.98831C16.5295 7.71122 16.5295 13.7445 20.2621 17.4674L20.5029 17.7076C19.3715 19.1354 18.326 20.6242 17.3628 22.1606C17.0436 19.2421 15.4114 16.5047 12.6669 14.9245L11.0118 13.9713L10.0562 15.6222C7.41683 20.18 8.98402 26.0093 13.5537 28.6418L13.8576 28.8172C13.1352 30.4852 12.5102 32.1932 11.9732 33.9317C10.9105 31.1905 8.61898 28.964 5.55531 28.1462L3.70908 27.6525L3.21408 29.4939C1.84756 34.5779 4.87301 39.8048 9.97212 41.1678L10.3066 41.2574C10.0409 43.0474 9.87656 44.8545 9.80967 46.675C8.06855 44.3055 5.28201 42.75 2.11513 42.75H0.203918V44.6562C0.203918 49.9194 4.48312 54.1875 9.75998 54.1875H10.0944C10.3008 55.9946 10.6066 57.7751 11.0042 59.5288C8.71263 57.7064 5.63176 56.9325 2.58529 57.7465L0.739058 58.2402L1.23406 60.0816C2.60058 65.1656 7.83921 68.1832 12.9383 66.8221L13.2346 66.7421C13.8997 68.4215 14.6584 70.0589 15.5051 71.6526C12.8236 70.4936 9.65486 70.5412 6.92947 72.112L5.27436 73.0651L6.22997 74.7159C8.86935 79.2718 14.7138 80.835 19.2835 78.2024Z" fill="#406844"/>
</svg>
