<svg width="64" height="64" viewBox="0 0 64 64" fill="none" xmlns="http://www.w3.org/2000/svg">
<path d="M28.2 45.6L29 45C29.874 44.3714 30.9234 44.0332 32 44.0332C33.0766 44.0332 34.126 44.3714 35 45L35.8 45.6C37.0117 46.5088 38.4854 47 40 47C41.5146 47 42.9883 46.5088 44.2 45.6L45 45C45.8664 44.3527 46.9185 44.002 48 44V42C46.4859 42.0029 45.013 42.4938 43.8 43.4L43 44C42.126 44.6286 41.0766 44.9668 40 44.9668C38.9234 44.9668 37.874 44.6286 37 44L36.2 43.4C34.9766 42.5194 33.5074 42.0455 32 42.0455C30.4926 42.0455 29.0234 42.5194 27.8 43.4L27 44C26.126 44.6286 25.0766 44.9668 24 44.9668C22.9234 44.9668 21.874 44.6286 21 44L20.2 43.4C18.987 42.4938 17.5141 42.0029 16 42V44C17.0815 44.002 18.1336 44.3527 19 45L19.8 45.6C21.0234 46.4806 22.4926 46.9545 24 46.9545C25.5074 46.9545 26.9766 46.4806 28.2 45.6Z" fill="#406844"/>
<path d="M59 49.9999C58.126 50.6285 57.0766 50.9667 56 50.9667C54.9234 50.9667 53.874 50.6285 53 49.9999L52.2 49.3999C50.9766 48.5192 49.5074 48.0454 48 48.0454C46.4926 48.0454 45.0234 48.5192 43.8 49.3999L43 49.9999C42.126 50.6285 41.0766 50.9667 40 50.9667C38.9234 50.9667 37.874 50.6285 37 49.9999L36.2 49.3999C34.9766 48.5192 33.5074 48.0454 32 48.0454C30.4926 48.0454 29.0234 48.5192 27.8 49.3999L27 49.9999C26.126 50.6285 25.0766 50.9667 24 50.9667C22.9234 50.9667 21.874 50.6285 21 49.9999L20.2 49.3999C18.9766 48.5192 17.5074 48.0454 16 48.0454C14.4926 48.0454 13.0234 48.5192 11.8 49.3999L11 49.9999C10.126 50.6285 9.07658 50.9667 7.99999 50.9667C6.9234 50.9667 5.87401 50.6285 4.99999 49.9999L2.59999 48.1999L1.39999 49.7999L3.79999 51.5999C5.02337 52.4805 6.49261 52.9544 7.99999 52.9544C9.50737 52.9544 10.9766 52.4805 12.2 51.5999L13 50.9999C13.874 50.3713 14.9234 50.0331 16 50.0331C17.0766 50.0331 18.126 50.3713 19 50.9999L19.8 51.5999C21.0234 52.4805 22.4926 52.9544 24 52.9544C25.5074 52.9544 26.9766 52.4805 28.2 51.5999L29 50.9999C29.874 50.3713 30.9234 50.0331 32 50.0331C33.0766 50.0331 34.126 50.3713 35 50.9999L35.8 51.5999C37.0234 52.4805 38.4926 52.9544 40 52.9544C41.5074 52.9544 42.9766 52.4805 44.2 51.5999L45 50.9999C45.874 50.3713 46.9234 50.0331 48 50.0331C49.0766 50.0331 50.126 50.3713 51 50.9999L51.8 51.5999C53.0117 52.5086 54.4854 52.9999 56 52.9999C57.5146 52.9999 58.9883 52.5086 60.2 51.5999L62.6 49.7999L61.4 48.1999L59 49.9999Z" fill="#406844"/>
<path d="M63 17.9601V17.0001C63 16.8319 62.9575 16.6665 62.8766 16.5191C62.7957 16.3716 62.6789 16.247 62.5371 16.1567C62.3952 16.0664 62.2329 16.0133 62.0651 16.0023C61.8972 15.9914 61.7294 16.023 61.577 16.0941C54.0751 19.5977 46.0335 21.8043 37.794 22.6201L45.294 15.1201C45.7467 14.6674 46.0011 14.0533 46.0011 13.4131C46.0011 12.7728 45.7467 12.1588 45.294 11.7061C44.8413 11.2534 44.2272 10.999 43.587 10.999C42.9468 10.999 42.3327 11.2534 41.88 11.7061L30.586 23.0001H30.447C22.8883 22.9985 15.3441 22.3384 7.9 21.0271L2.174 20.0161C2.01087 19.9868 1.843 19.999 1.68577 20.0514C1.52854 20.1038 1.38696 20.1948 1.274 20.3161C1.16015 20.4381 1.07864 20.5866 1.03689 20.7482C0.995148 20.9098 0.994498 21.0792 1.035 21.2411L1.535 23.2521C3.01404 29.0889 6.55726 34.1923 11.509 37.6181L11 38.0001C10.126 38.6287 9.07659 38.9669 8 38.9669C6.92341 38.9669 5.87402 38.6287 5 38.0001L2.6 36.2001L1.4 37.8001L3.8 39.6001C5.02338 40.4807 6.49262 40.9546 8 40.9546C9.50738 40.9546 10.9766 40.4807 12.2 39.6001L13 39.0001C13.874 38.3715 14.9234 38.0333 16 38.0333C17.0766 38.0333 18.126 38.3715 19 39.0001L19.8 39.6001C21.0234 40.4807 22.4926 40.9546 24 40.9546C25.5074 40.9546 26.9766 40.4807 28.2 39.6001L29 39.0001C29.874 38.3715 30.9234 38.0333 32 38.0333C33.0766 38.0333 34.126 38.3715 35 39.0001L35.8 39.6001C37.0234 40.4807 38.4926 40.9546 40 40.9546C41.5074 40.9546 42.9766 40.4807 44.2 39.6001L45 39.0001C45.874 38.3715 46.9234 38.0333 48 38.0333C49.0766 38.0333 50.126 38.3715 51 39.0001L51.8 39.6001C53.0117 40.5089 54.4854 41.0001 56 41.0001C57.5146 41.0001 58.9883 40.5089 60.2 39.6001L62.6 37.8001L61.4 36.2001L59 38.0001C58.126 38.6287 57.0766 38.9669 56 38.9669C54.9234 38.9669 53.874 38.6287 53 38.0001L52.89 37.9181C56.0309 35.6256 58.5844 32.622 60.3416 29.1531C62.0988 25.6843 63.0098 21.8486 63 17.9601ZM60.992 18.5601C60.976 19.1841 60.926 19.8011 60.861 20.4151C52.2475 24.3338 42.9546 26.5414 33.499 26.9151L35.599 24.8151C44.3637 24.2264 52.9577 22.1081 60.992 18.5561V18.5601ZM43.292 13.1251C43.3523 13.0739 43.4256 13.0403 43.5037 13.028C43.5819 13.0157 43.6619 13.0253 43.735 13.0556C43.8081 13.0858 43.8714 13.1357 43.918 13.1997C43.9646 13.2636 43.9926 13.3392 43.999 13.4181C43.9992 13.4725 43.9887 13.5264 43.9679 13.5767C43.9471 13.627 43.9166 13.6727 43.878 13.7111L25 32.5861L24.414 32.0001L43.292 13.1251ZM7.554 23.0001C14.5068 24.2221 21.5463 24.8855 28.605 24.9841L26.647 26.9421C20.3599 26.7577 14.0945 26.1177 7.9 25.0271L3.947 24.3271C3.777 23.8111 3.604 23.2961 3.472 22.7671L3.343 22.2501L7.554 23.0001ZM4.79 26.5091L7.554 27.0001C13.2333 27.9936 18.9716 28.6139 24.732 28.8571L22.586 31.0001H21C20.7348 31.0002 20.4805 31.1055 20.293 31.2931L15.5 36.0841C14.8089 36.1288 14.1279 36.2729 13.478 36.5121C9.65904 34.1074 6.63633 30.6271 4.79 26.5091ZM18.063 36.3511L21.414 33.0001H22.586L24 34.4141V35.5861L21.361 38.2251C21.24 38.1511 21.114 38.0861 21 38.0011L20.2 37.4011C19.5563 36.9259 18.8325 36.5702 18.063 36.3511ZM51.077 36.7391C49.915 36.1916 48.6279 35.9642 47.3486 36.0804C46.0694 36.1966 44.8443 36.6522 43.8 37.4001L43 38.0001C42.126 38.6287 41.0766 38.9669 40 38.9669C38.9234 38.9669 37.874 38.6287 37 38.0001L36.2 37.4001C34.9766 36.5194 33.5074 36.0456 32 36.0456C30.4926 36.0456 29.0234 36.5194 27.8 37.4001L27 38.0001C25.9837 38.734 24.7312 39.0647 23.485 38.9281L25.707 36.7061C25.8943 36.5189 25.9997 36.2649 26 36.0001V34.4141L31.429 28.9851C41.4387 28.8653 51.3232 26.7433 60.5 22.7441C59.2819 28.45 55.9057 33.4643 51.077 36.7391Z" fill="#406844"/>
</svg>
