<svg width="64" height="64" viewBox="0 0 64 64" fill="none" xmlns="http://www.w3.org/2000/svg">
<g clip-path="url(#clip0)">
<path d="M63.715 23.7057C63.4775 23.4171 63.1235 23.25 62.7497 23.25H54.8747C54.2789 23.25 53.7659 23.6705 53.649 24.2549L51.6 34.5H47.798C50.4315 30.2664 50.3202 24.773 47.3422 20.628C48.3654 18.188 50.2325 16.6042 54.9855 11.827C56.2519 10.5717 57.6872 9.14913 59.3996 7.43787C59.6341 7.20337 59.7659 6.8855 59.766 6.55387C59.766 6.22237 59.6344 5.90438 59.3999 5.66988L54.0961 0.366125C53.8617 0.13175 53.5439 0 53.2122 0C52.8806 0 52.5627 0.13175 52.3284 0.366125C50.4579 2.23675 48.8744 3.8375 47.602 5.12375C47.5892 5.12937 42.84 10.5866 38.061 5.80963C37.5726 5.32138 36.7811 5.3215 36.2932 5.81C35.8051 6.29812 35.8054 7.08963 36.2935 7.57775C37.9997 9.28337 40.2406 10.1361 42.4814 10.1361C42.4951 10.1361 42.5089 10.1353 42.5226 10.1351C41.1184 11.4117 40.2602 11.9731 39.1527 12.4385C38.0344 11.635 36.8 11.028 35.4742 10.6305C34.8129 10.432 34.1162 10.8076 33.918 11.4689C33.7197 12.1302 34.0951 12.827 34.7564 13.0253C36.005 13.3995 37.1521 14.0066 38.1659 14.8294C38.5085 15.1075 38.972 15.184 39.3861 15.0316C42.1447 14.0144 43.368 12.942 47.8001 8.47688L51.2931 11.9698C46.8405 16.4015 45.7706 17.6256 44.7496 20.3953C44.597 20.8092 44.674 21.2729 44.9519 21.6154C48.0326 25.4114 47.894 30.8605 44.6954 34.5001H41.02C39.3854 31.5037 38.8671 27.8619 39.8052 24.3447C39.9831 23.6777 39.5866 22.9929 38.9196 22.8149C38.2527 22.637 37.5676 23.0335 37.3897 23.7005C37.2154 24.3541 37.0812 25.0226 36.9886 25.6965C34.6701 26.6891 31.9187 26.1834 30.108 24.3715C29.62 23.8831 28.8286 23.8831 28.3402 24.371C27.852 24.859 27.8517 25.6505 28.3399 26.1389C30.5735 28.3736 33.847 29.2049 36.8471 28.3869C36.9124 30.4939 37.3882 32.5791 38.2369 34.5003H22.6231C22.754 32.5583 23.0331 30.2411 23.6206 28.408C23.808 27.8235 23.5431 27.1895 22.9957 26.9118C22.0797 26.447 21.2186 25.8787 20.4244 25.2157L22.1534 23.4875C23.1347 22.5051 24.2824 21.7519 25.5644 21.2489C26.023 21.069 26.3331 20.6365 26.3564 20.1443C26.3796 19.6521 26.1116 19.1923 25.672 18.9699C24.7451 18.501 23.876 17.9284 23.0764 17.2607C24.7587 15.5881 24.8844 15.4295 25.3309 15.0421C25.8524 14.5899 25.9084 13.8003 25.456 13.2789C25.0036 12.7575 24.2141 12.7013 23.6926 13.1538C23.1216 13.649 22.9926 13.8216 20.3851 16.4165C19.897 16.9046 19.897 17.6961 20.3851 18.1844C21.0525 18.8518 21.7712 19.4566 22.5351 19.9944C21.7622 20.4845 21.0435 21.0611 20.3854 21.7201L17.7329 24.3714C17.4982 24.6057 17.3665 24.9239 17.3665 25.2555C17.3665 25.5873 17.4984 25.9053 17.7331 26.1396C18.7071 27.1128 19.7877 27.9518 20.9554 28.6424C20.4726 30.5438 20.234 32.6951 20.118 34.5003H12.3995L10.3505 24.2551C10.2336 23.6705 9.72061 23.25 9.12473 23.25H1.24973C0.876107 23.25 0.521982 23.4171 0.284482 23.7057C0.0471066 23.9944 -0.0488934 24.3739 0.0231066 24.7405L7.52311 62.9905C7.63811 63.577 8.15211 64 8.74973 64H55.2497C55.8474 64 56.3614 63.577 56.4764 62.9905L63.9764 24.7405C64.0482 24.3737 63.9524 23.9942 63.715 23.7057ZM53.2129 3.01837L56.7474 6.55288C55.4199 7.8765 53.0672 10.2084 53.0672 10.2084L49.559 6.70013C50.6317 5.61575 51.82 4.41512 53.2129 3.01837ZM55.8995 25.75H61.2307L59.5151 34.5H54.1495L55.8995 25.75ZM57.3092 45.75H51.8995L53.6495 37H59.025L57.3092 45.75ZM55.7651 53.625C45.2831 53.625 18.5382 53.625 8.23423 53.625L7.18036 48.25H56.819L55.7651 53.625ZM40.9312 61.5L41.6624 56.125H47.3641L46.3404 61.5H40.9312ZM33.2497 61.5V56.125H39.1394L38.4082 61.5H33.2497ZM25.5912 61.5L24.8601 56.125H30.7497V61.5H25.5912ZM17.6591 61.5L16.6354 56.125H22.3371L23.0682 61.5H17.6591ZM4.97448 37H10.35L12.1 45.75H6.69023L4.97448 37ZM22.191 37H30.7497V45.75H23.4412L22.191 37ZM41.8085 37L40.5582 45.75H33.2497V37H41.8085ZM49.35 45.75H43.0835L44.3337 37H51.1L49.35 45.75ZM19.6656 37L20.9159 45.75H14.6494L12.8994 37H19.6656ZM8.09998 25.75L9.84998 34.5H4.48436L2.76873 25.75H8.09998ZM8.72448 56.125H14.0904L15.1141 61.5H9.77836L8.72448 56.125ZM54.2211 61.5H48.8854L49.9091 56.125H55.275L54.2211 61.5Z" fill="#406844"/>
<path d="M29.5 12.75C30.1904 12.75 30.75 12.1904 30.75 11.5C30.75 10.8096 30.1904 10.25 29.5 10.25C28.8096 10.25 28.25 10.8096 28.25 11.5C28.25 12.1904 28.8096 12.75 29.5 12.75Z" fill="#406844"/>
</g>
<defs>
<clipPath id="clip0">
<rect width="64" height="64" fill="white"/>
</clipPath>
</defs>
</svg>
