<svg width="64" height="64" viewBox="0 0 64 64" fill="none" xmlns="http://www.w3.org/2000/svg">
<path d="M57.0442 41.7995C56.9824 41.696 56.9172 41.5969 56.8522 41.5094C56.2059 40.6059 55.2447 40.0087 54.1482 39.8283C53.057 39.648 51.9509 39.905 51.0506 40.5515L39.1252 49.0668H26.6666C26.0789 49.0668 25.6 48.5889 25.6 48.0002C25.6 47.4114 26.0789 46.9335 26.6666 46.9335H33.6C35.6586 46.9335 37.3334 45.2589 37.3334 43.2002C37.3334 43.1884 37.3322 43.0903 37.3312 43.0797C37.2651 41.022 35.5296 39.4178 33.5147 39.4669H19.6385C18.4086 39.4775 17.2107 39.9182 16.2667 40.7053L11.0507 45.0467C10.8075 45.2504 10.6667 45.5502 10.6667 45.8669V58.6669C10.6667 59.2568 11.1446 59.7335 11.7334 59.7335H38.1985C39.9307 59.7314 41.6182 59.1213 42.9516 58.0173L55.8829 47.3325C57.6395 46.081 58.1494 43.6513 57.0442 41.7995ZM54.5856 45.6417L41.5925 56.3734C40.6389 57.1628 39.4325 57.5979 38.1972 57.6H12.8V46.3669L17.633 42.3434C18.2005 41.8709 18.9184 41.6063 19.648 41.5999L33.5487 41.5989C34.433 41.5978 35.1711 42.2667 35.2 43.2C35.2 44.0822 34.4821 44.8 33.6 44.8H26.6666C24.9024 44.8 23.4666 46.2358 23.4666 48C23.4666 49.7643 24.9024 51.2 26.6666 51.2H39.4666C39.6885 51.2 39.905 51.1307 40.0885 51.0017L52.2932 42.2859C52.7327 41.9702 53.2671 41.8475 53.8026 41.9328C54.337 42.0213 54.8042 42.3114 55.1252 42.7594C55.1572 42.8032 55.186 42.8479 55.2137 42.8938C55.7536 43.7974 55.5029 44.9845 54.5856 45.6417Z" fill="#406844"/>
<path d="M11.7014 43.7334H0V45.8668H10.6346V61.8668H0V64H11.7014C12.2901 64 12.768 63.5233 12.768 62.9334V44.8C12.768 44.2101 12.2901 43.7334 11.7014 43.7334Z" fill="#406844"/>
<path d="M5.33336 53.3335C3.56911 53.3335 2.13336 54.7692 2.13336 56.5335C2.13336 58.2977 3.56911 59.7335 5.33336 59.7335C7.09761 59.7335 8.53336 58.2977 8.53336 56.5335C8.53336 54.7692 7.09761 53.3335 5.33336 53.3335ZM5.33336 57.6001C4.74561 57.6001 4.26674 57.1222 4.26674 56.5335C4.26674 55.9447 4.74561 55.4669 5.33336 55.4669C5.92111 55.4669 6.39999 55.9447 6.39999 56.5335C6.39999 57.1222 5.92111 57.6001 5.33336 57.6001Z" fill="#406844"/>
<path d="M62.9334 33.0667H1.06662C0.477875 33.0667 0 33.5434 0 34.1333C0 38.2495 3.34938 41.5999 7.46663 41.5999H56.5332C60.6495 41.5999 63.9999 38.2495 63.9999 34.1333C64 33.5435 63.5233 33.0667 62.9334 33.0667ZM56.5334 39.4667H7.46663C4.89062 39.4667 2.736 37.6309 2.241 35.2H61.7589C61.264 37.6309 59.1094 39.4667 56.5334 39.4667Z" fill="#406844"/>
<path d="M32 5.33325C16.7083 5.33325 4.26663 17.7749 4.26663 33.0666V34.1333C4.26663 34.7231 4.74451 35.1999 5.33326 35.1999H58.6666C59.2565 35.1999 59.7333 34.7231 59.7333 34.1333V33.0666C59.7334 17.7748 47.2928 5.33325 32 5.33325ZM6.40001 33.0665C6.40001 18.9513 17.8848 7.4665 32 7.4665C46.1153 7.4665 57.6 18.9513 57.6 33.0665H6.40001Z" fill="#406844"/>
<path d="M14.4555 17.5007C13.7099 18.3391 13.0187 19.2362 12.4011 20.1685L14.1792 21.3471C14.7425 20.498 15.3717 19.6799 16.0501 18.9172L14.4555 17.5007Z" fill="#406844"/>
<path d="M32 9.59985C26.0096 9.6031 20.3061 11.8665 15.9414 15.97L17.4028 17.5241C21.3708 13.7929 26.5558 11.7364 32.0011 11.7332L32 9.59985Z" fill="#406844"/>
<path d="M35.2 0H28.8V2.13337H35.2V0Z" fill="#406844"/>
<path d="M33.0667 1.06665H30.9334V6.40003H33.0667V1.06665Z" fill="#406844"/>
</svg>
