<svg width="64" height="64" viewBox="0 0 64 64" fill="none" xmlns="http://www.w3.org/2000/svg">
<g clip-path="url(#clip0)">
<path d="M17.0699 47.4402H14.9367V49.5734H17.0699V47.4402Z" fill="#406844"/>
<path d="M7.47056 50.6399H5.33737V52.7731H7.47056V50.6399Z" fill="#406844"/>
<path d="M24.536 52.7732H22.4028V54.9064H24.536V52.7732Z" fill="#406844"/>
<path d="M40.535 22.9084H38.4018V25.0416H40.535V22.9084Z" fill="#406844"/>
<path d="M48.0011 23.9751H45.868V26.1083H48.0011V23.9751Z" fill="#406844"/>
<path d="M45.8679 29.3081H43.7347V31.4413H45.8679V29.3081Z" fill="#406844"/>
<path d="M55.4673 29.3081H53.3341V31.4413H55.4673V29.3081Z" fill="#406844"/>
<path d="M58.6671 22.9084H56.5339V25.0416H58.6671V22.9084Z" fill="#406844"/>
<path d="M59.3261 60.2391L57.4937 56.5626C57.3121 56.1993 56.94 55.9705 56.5338 55.9728H49.0676V37.7809C56.8036 37.1708 62.9334 30.0257 62.9334 21.3085C62.9334 21.1901 62.9334 21.045 62.9334 20.8882V20.852C62.928 20.5235 62.9174 20.1267 62.9024 19.6734C62.7958 16.4565 62.447 10.3439 61.8358 8.67787C61.6817 8.25416 61.2777 7.97325 60.8268 7.97605H55.944L56.3983 5.59115L62.2038 3.65421L61.5297 1.62769L55.1302 3.76087C54.7642 3.88273 54.4926 4.19271 54.4198 4.57148L53.7713 7.97605H35.1753C34.7282 7.97565 34.3284 8.25416 34.1737 8.6736C33.5604 10.3396 33.2138 16.4523 33.1071 19.6691C33.0922 20.1224 33.0815 20.5224 33.0762 20.8477V20.884C33.0762 21.0408 33.0762 21.1858 33.0762 21.3042C33.0762 30.0215 39.2059 37.1666 46.9419 37.7767V55.9728H43.9043C46.2716 50.5871 43.8248 44.3021 38.4392 41.9347C35.4268 40.6105 31.9718 40.7529 29.0786 42.3204L29.869 33.6714C29.9226 33.0847 29.4905 32.5657 28.9038 32.5121C28.8701 32.509 28.8362 32.5076 28.8024 32.5077H1.07094C0.481914 32.5053 0.00234713 32.9807 -5.27024e-05 33.5699C-0.000186027 33.6038 0.00128054 33.6376 0.004347 33.6714L2.13753 57.0905V61.3057C2.13753 61.8947 2.6151 62.3723 3.20413 62.3723H26.6692C27.2582 62.3723 27.7358 61.8947 27.7358 61.3057V60.2285C29.5788 61.6205 31.8256 62.3732 34.1353 62.3723H63.9999V60.2391H59.3261ZM25.6026 60.2391H4.27072V58.1059H25.6026V60.2391ZM25.6954 55.9728H4.17793L3.31079 46.3734H8.936C8.23138 47.872 8.78654 49.6607 10.2159 50.4969L15.7622 53.6966C16.2484 53.9777 16.8005 54.1249 17.3621 54.1233C17.6433 54.1242 17.9233 54.0884 18.1951 54.0166C19.0164 53.7985 19.7162 53.2608 20.1384 52.5234L23.3382 46.9771C23.4445 46.7851 23.531 46.5829 23.5963 46.3734H26.5679L25.6954 55.9728ZM21.2157 46.3734L18.2794 51.4589C17.9848 51.9684 17.3333 52.1431 16.8235 51.8493L11.2772 48.6495C10.7671 48.355 10.5923 47.7027 10.8868 47.1926L11.3625 46.3734H21.2157ZM12.5901 44.2402L14.0834 41.6505C14.2246 41.4052 14.4575 41.226 14.7308 41.1524C14.8213 41.1288 14.9145 41.1167 15.0081 41.1162C15.1954 41.1166 15.3794 41.1662 15.5414 41.2602L20.7091 44.2402H12.5901ZM26.7566 44.2402H23.5281C23.2725 43.5552 22.7874 42.98 22.1554 42.6126L16.6091 39.4128C15.0789 38.5289 13.1217 39.0527 12.2378 40.583C12.2372 40.5841 12.2366 40.585 12.236 40.5861L10.1306 44.2402H3.11133L2.24419 34.6409H27.6291L26.7566 44.2402ZM55.5376 10.1092H60.0002C60.3951 12.9384 60.6381 15.7867 60.7276 18.642H53.9121L55.5376 10.1092ZM36.0019 10.1092H53.365L51.7405 18.642H35.2745C35.3641 15.7867 35.607 12.9384 36.0019 10.1092ZM35.2019 21.3085C35.2019 21.1613 35.2019 20.9821 35.2073 20.7752H51.3342L50.1534 26.9742L52.2482 27.3752L53.5057 20.7752H60.8002C60.8002 20.9821 60.8055 21.1613 60.8055 21.3085C60.8002 29.2482 55.0587 35.7075 48.001 35.7075C40.9434 35.7075 35.2019 29.2482 35.2019 21.3085ZM39.468 58.3774C35.9052 61.2168 30.7402 60.7563 27.7358 57.3316V57.0905L28.8322 45.0316C32.5176 42.0946 37.886 42.7013 40.823 46.3866C43.76 50.072 43.1534 55.4404 39.468 58.3774ZM40.5072 60.2391C41.3267 59.6254 42.0544 58.8978 42.6681 58.0782V58.1059H55.8746L56.9412 60.2391H40.5072Z" fill="#406844"/>
<path d="M38.0882 48.6357C37.6665 49.0398 37.0011 49.0394 36.58 48.6346C36.1643 48.2183 36.1643 47.5439 36.58 47.1275L35.0719 45.6194C33.8124 46.8589 33.7961 48.8849 35.0356 50.1444C36.2751 51.4039 38.3011 51.4202 39.5606 50.1807C39.573 50.1685 39.5853 50.1563 39.5974 50.1439L38.0882 48.6357Z" fill="#406844"/>
</g>
<defs>
<clipPath id="clip0">
<rect width="64" height="64" fill="white"/>
</clipPath>
</defs>
</svg>
