<svg width="31" height="31" viewBox="0 0 31 31" fill="none" xmlns="http://www.w3.org/2000/svg">
<path d="M15.5 0C6.95333 0 0 6.95333 0 15.5C0 24.046 6.95333 31 15.5 31C24.046 31 31 24.046 31 15.5C31 6.95333 24.0473 0 15.5 0ZM19.3547 16.0457H16.833C16.833 20.0746 16.833 25.0338 16.833 25.0338H13.0963C13.0963 25.0338 13.0963 20.1227 13.0963 16.0457H11.32V12.869H13.0963V10.8143C13.0963 9.3427 13.7955 7.04324 16.8673 7.04324L19.6363 7.05385V10.1375C19.6363 10.1375 17.9537 10.1375 17.6265 10.1375C17.2994 10.1375 16.8342 10.3011 16.8342 11.0028V12.8696H19.6812L19.3547 16.0457Z" fill="#C4C4C4"/>
</svg>
