<svg width="64" height="64" viewBox="0 0 64 64" fill="none" xmlns="http://www.w3.org/2000/svg">
<path d="M62.9333 19.2001H59.7333V17.6001C59.7333 15.5382 58.0619 13.8668 56 13.8668C55.4453 13.8698 54.8985 13.9978 54.4 14.2412V12.8001C54.4 10.4437 52.4897 8.53345 50.1333 8.53345C47.7769 8.53345 45.8667 10.4437 45.8667 12.8001V19.2001H41.6V18.1334C41.6077 16.3738 40.1876 14.941 38.428 14.9332C37.6287 14.9296 36.8572 15.2266 36.2667 15.7654C35.0608 14.6561 33.2059 14.6561 32 15.7654C30.7941 14.6561 28.9392 14.6561 27.7333 15.7654C26.4333 14.5796 24.4181 14.6721 23.2323 15.9721C22.6936 16.5626 22.3965 17.3341 22.4 18.1334V19.2001H18.1333V12.8001C18.1333 10.4437 16.2231 8.53345 13.8667 8.53345C11.5103 8.53345 9.6 10.4437 9.6 12.8001V14.2412C9.10147 13.9978 8.55467 13.8698 8 13.8668C5.93813 13.8668 4.26667 15.5382 4.26667 17.6001V19.2001H1.06667C0.4776 19.2001 0 19.6777 0 20.2668V26.6668C0 27.2558 0.4776 27.7334 1.06667 27.7334H4.26667V29.3334C4.26667 31.3953 5.93813 33.0668 8 33.0668C8.55467 33.0637 9.10147 32.9357 9.6 32.6924V34.1334C9.6 36.4898 11.5103 38.4001 13.8667 38.4001C16.2231 38.4001 18.1333 36.4898 18.1333 34.1334V27.7334H20.2667V31.2993C20.2632 32.7144 20.8259 34.0721 21.8293 35.07L24.5333 37.7751V55.4668H26.6667V37.3334C26.6667 37.0505 26.5541 36.7793 26.3541 36.5793L23.3376 33.5617C22.7391 32.9606 22.4021 32.1476 22.4 31.2993V24.5334H28.6475C29.0513 24.528 29.434 24.7134 29.68 25.0337C29.6875 25.0444 29.696 25.055 29.7035 25.0668C29.7492 25.1396 29.7851 25.2181 29.8101 25.3004C29.8303 25.3661 29.8439 25.4336 29.8507 25.502C29.8581 25.5689 29.8581 25.6366 29.8507 25.7036C29.8483 25.7394 29.8436 25.775 29.8368 25.8102C29.8127 25.9226 29.7712 26.0305 29.7141 26.1302C29.5281 26.4605 29.1791 26.6653 28.8 26.6668H25.6C25.0109 26.6668 24.5333 27.1444 24.5333 27.7334V29.8668C24.5332 30.3261 24.8272 30.7338 25.2629 30.879L27.6096 31.663C29.5147 32.2956 30.9333 35.1788 30.9333 37.3334H33.0667C33.0667 34.399 31.2405 30.622 28.2891 29.6385L26.6667 29.0977V28.8001H28.8C29.6977 28.7914 30.55 28.4041 31.1467 27.7334H40.5333V31.6449C40.532 32.337 40.3076 33.0104 39.8933 33.5649L37.5467 36.6935C37.4081 36.8781 37.3333 37.1026 37.3333 37.3334V55.4668H39.4667V37.6886L41.6 34.8449C42.2904 33.9208 42.6645 32.7985 42.6667 31.6449V27.7334H45.8667V34.1334C45.8667 36.4898 47.7769 38.4001 50.1333 38.4001C52.4897 38.4001 54.4 36.4898 54.4 34.1334V32.6924C54.8985 32.9357 55.4453 33.0637 56 33.0668C58.0619 33.0668 59.7333 31.3953 59.7333 29.3334V27.7334H62.9333C63.5224 27.7334 64 27.2558 64 26.6668V20.2668C64 19.6777 63.5224 19.2001 62.9333 19.2001ZM4.26667 25.6001H2.13333V21.3334H4.26667V25.6001ZM9.6 29.3334C9.6 30.217 8.8836 30.9334 8 30.9334C7.1164 30.9334 6.4 30.217 6.4 29.3334V17.6001C6.4 16.7165 7.1164 16.0001 8 16.0001C8.8836 16.0001 9.6 16.7165 9.6 17.6001V29.3334ZM16 34.1334C16 35.3117 15.0449 36.2668 13.8667 36.2668C12.6884 36.2668 11.7333 35.3117 11.7333 34.1334V12.8001C11.7333 11.6218 12.6884 10.6668 13.8667 10.6668C15.0449 10.6668 16 11.6218 16 12.8001V34.1334ZM21.3333 22.4001C20.7443 22.4001 20.2667 22.8777 20.2667 23.4668V25.6001H18.1333V21.3334H22.4C22.4012 21.535 22.4215 21.7362 22.4608 21.934C22.4725 21.9969 22.4928 22.0545 22.5077 22.1153C22.5323 22.2102 22.5504 22.3084 22.5824 22.4001H21.3333ZM26.6667 21.3334C26.6667 21.9225 26.1891 22.4001 25.6 22.4001C25.0109 22.4001 24.5333 21.9225 24.5333 21.3334V18.1334C24.5333 17.5444 25.0109 17.0668 25.6 17.0668C26.1891 17.0668 26.6667 17.5444 26.6667 18.1334V21.3334ZM30.9333 21.3334C30.9333 21.9225 30.4557 22.4001 29.8667 22.4001C29.2776 22.4001 28.8 21.9225 28.8 21.3334V18.1334C28.8 17.5444 29.2776 17.0668 29.8667 17.0668C30.4557 17.0668 30.9333 17.5444 30.9333 18.1334V21.3334ZM37.3333 18.1334C37.3333 17.5444 37.8109 17.0668 38.4 17.0668C38.9891 17.0668 39.4667 17.5444 39.4667 18.1334V21.3334C39.4667 21.9225 38.9891 22.4001 38.4 22.4001C37.8109 22.4001 37.3333 21.9225 37.3333 21.3334V18.1334ZM33.0667 18.1334C33.0667 17.5444 33.5443 17.0668 34.1333 17.0668C34.7224 17.0668 35.2 17.5444 35.2 18.1334V21.3334C35.2 21.9225 34.7224 22.4001 34.1333 22.4001C33.5443 22.4001 33.0667 21.9225 33.0667 21.3334V18.1334ZM45.8667 25.6001H32C32 25.5894 32 25.5809 32 25.5702C31.9991 25.3581 31.9769 25.1465 31.9339 24.9388C31.9275 24.91 31.9136 24.8833 31.9072 24.8534C31.888 24.7756 31.8603 24.703 31.8357 24.6273C31.7907 24.4906 31.7361 24.3574 31.6725 24.2284C31.6416 24.1644 31.6267 24.0918 31.5915 24.03C31.6036 24.0217 31.6153 24.0128 31.6267 24.0033C31.6757 23.9713 31.7184 23.9329 31.7653 23.8966C31.8453 23.8369 31.9296 23.7814 32.0043 23.7142C32.0661 23.7697 32.1376 23.8134 32.2037 23.8636C32.2699 23.9137 32.3349 23.9702 32.4064 24.015C32.5071 24.0772 32.6111 24.1338 32.7179 24.1846C32.7904 24.2198 32.8587 24.2614 32.9312 24.2913C33.0557 24.339 33.1833 24.3786 33.3131 24.4097C33.3803 24.4278 33.4432 24.4534 33.5125 24.4673C33.9228 24.5512 34.3459 24.5512 34.7563 24.4673C34.8256 24.4534 34.8885 24.4278 34.9557 24.4097C35.0855 24.3786 35.2131 24.339 35.3376 24.2913C35.4133 24.2604 35.4816 24.2188 35.5509 24.1846C35.6581 24.1338 35.7624 24.0772 35.8635 24.015C35.9339 23.9681 35.9979 23.9148 36.0651 23.8636C36.1323 23.8124 36.2027 23.7697 36.2645 23.7142C36.3264 23.7697 36.3979 23.8134 36.464 23.8636C36.5301 23.9137 36.5952 23.9702 36.6667 24.015C36.7673 24.0772 36.8713 24.1338 36.9781 24.1846C37.0507 24.2198 37.1189 24.2614 37.1915 24.2913C37.316 24.339 37.4436 24.3786 37.5733 24.4097C37.6405 24.4278 37.7035 24.4534 37.7728 24.4673C39.5001 24.8184 41.1849 23.7028 41.536 21.9756C41.5789 21.7642 41.6004 21.5492 41.6 21.3334H45.8667V25.6001ZM52.2667 34.1334C52.2667 35.3117 51.3116 36.2668 50.1333 36.2668C48.9551 36.2668 48 35.3117 48 34.1334V12.8001C48 11.6218 48.9551 10.6668 50.1333 10.6668C51.3116 10.6668 52.2667 11.6218 52.2667 12.8001V34.1334ZM57.6 29.3334C57.6 30.217 56.8836 30.9334 56 30.9334C55.1164 30.9334 54.4 30.217 54.4 29.3334V17.6001C54.4 16.7165 55.1164 16.0001 56 16.0001C56.8836 16.0001 57.6 16.7165 57.6 17.6001V29.3334ZM61.8667 25.6001H59.7333V21.3334H61.8667V25.6001Z" fill="#406844"/>
</svg>
