<svg width="43" height="84" viewBox="0 0 43 84" fill="none" xmlns="http://www.w3.org/2000/svg">
<path d="M32.7181 53.375C37.9949 53.375 42.2741 49.1069 42.2741 43.8438V41.9375H40.3629C37.196 41.9375 34.4095 43.493 32.6703 45.8587C32.6034 44.0382 32.4409 42.2311 32.1734 40.4411L32.5078 40.3515C37.605 38.9885 40.6305 33.7635 39.2659 28.6776L38.7709 26.8362L36.9247 27.3299C33.861 28.1496 31.5694 30.3742 30.5068 33.1154C29.9697 31.3769 29.3448 29.6689 28.6223 28.0009L28.9262 27.8255C33.4959 25.193 35.0631 19.3637 32.4237 14.8058L31.4681 13.155L29.813 14.1082C27.0685 15.6884 25.4344 18.4258 25.1172 21.3443C24.1539 19.8078 23.1085 18.3191 21.9771 16.8913L22.2179 16.6511C25.9505 12.9282 25.9505 6.89491 22.2179 3.172L20.8666 1.82428L19.5154 3.172C17.2812 5.40041 16.4135 8.45613 16.855 11.3498C16.8416 11.3384 16.8302 11.325 16.8187 11.3136L15.4885 12.7433C15.1712 5.65584 9.32484 0 2.13869 0H0.227478C0.227478 7.36956 6.21722 13.3438 13.606 13.3438H14.9323L14.3112 14.0109C11.3775 13.5306 8.26412 14.3979 6.00125 16.6549L4.65002 18.0026L6.00125 19.3503C9.64402 22.9837 15.4809 23.0427 19.2307 19.5829C20.1251 20.7343 20.9699 21.9219 21.7477 23.1476C19.0854 22.0286 15.9587 22.0877 13.2639 23.6413L11.6087 24.5944L12.5644 26.2452C15.1388 30.6925 20.7539 32.2557 25.2701 29.89C25.8358 31.2263 26.3423 32.5873 26.778 33.9713C24.4979 32.208 21.4668 31.4627 18.4643 32.2633L16.618 32.757L17.113 34.5984C18.4451 39.5604 23.4678 42.5227 28.4465 41.398C28.6472 42.8353 28.7829 44.2822 28.844 45.7405C27.101 43.4434 24.3623 41.9375 21.2508 41.9375H19.3396V43.8438C19.3396 48.9868 23.4315 53.1482 28.5402 53.3388C28.3605 54.799 28.1101 56.242 27.7948 57.6641C26.7111 54.9801 24.4502 52.805 21.4324 51.9987L19.5861 51.505L19.0911 53.3464C17.7552 58.3198 20.6354 63.4057 25.5338 64.9021C24.9796 66.2632 24.3565 67.5918 23.6723 68.8919C23.3245 66.0153 21.7038 63.3256 18.9956 61.7663L17.3405 60.8132L16.3849 62.464C13.8066 66.917 15.263 72.5633 19.5938 75.2759C17.1646 78.4555 14.3055 81.353 11.0296 83.875H16.9391C19.1485 81.8258 21.1361 79.5936 22.9097 77.2279L23.1926 77.3899C27.7623 80.0225 33.6068 78.4594 36.2462 73.9015L37.2018 72.2507L35.5467 71.2976C32.8213 69.7287 29.6525 69.6792 26.9711 70.8382C27.8177 69.2445 28.5765 67.6071 29.2416 65.9277L29.5378 66.0077C34.635 67.3707 39.8756 64.3531 41.2421 59.2672L41.7371 57.4258L39.8908 56.9321C36.8444 56.1181 33.7635 56.892 31.472 58.7144C31.8695 56.9626 32.1753 55.1802 32.3817 53.3731H32.7181V53.375Z" fill="#406844"/>
</svg>
