<svg width="111" height="134" viewBox="0 0 111 134" fill="none" xmlns="http://www.w3.org/2000/svg">
<path d="M1.03815 80.4525L24.7478 71.6619L35.004 76.0572V78.4276L24.7478 74.5927L1.03815 80.4535V80.4525Z" fill="white"/>
<path d="M1.03815 75.0931L24.6037 65.1527L35.004 69.9872V72.5234L24.6698 68.2553L1.03815 75.0931Z" fill="white"/>
<path d="M1.03811 69.7522L24.4537 58.6631L35.0029 63.9368V66.6407L24.5918 61.9394L1.03613 69.7532L1.03811 69.7522Z" fill="white"/>
<path d="M1.03815 64.3867L24.3087 52.149L35.004 57.8657V60.7344L24.5198 55.6009L1.03815 64.3867Z" fill="white"/>
<path d="M1.03815 59.0462L24.1596 45.6598L35.004 51.8147V54.8453L24.4419 49.2845L1.03815 59.0462Z" fill="white"/>
<path d="M1.03815 53.6966L24.0156 39.1606L35.004 45.7546V48.9519L24.3649 42.9569L1.03815 53.6966ZM31.857 37.1632L54.9015 18.9147L65.957 26.5064V29.9702L55.1669 23.4433L31.8579 37.1632H31.857Z" fill="white"/>
<path d="M31.6743 42.6478L54.9843 25.4977L65.9569 32.6907V36.0706L55.234 29.9108L31.6743 42.6478Z" fill="white"/>
<path d="M31.4908 48.1515L55.0672 32.1017L65.9569 38.894V42.191L55.3001 36.3973L31.4908 48.1515Z" fill="white"/>
<path d="M31.3082 53.6364L55.1501 38.6849L65.956 45.0786V48.2917L55.3672 42.8641L31.3082 53.6364Z" fill="white"/>
<path d="M31.1247 59.141L55.234 45.2879L65.9569 51.2819V54.4121L55.4343 49.3516L31.1247 59.141Z" fill="white"/>
<path d="M30.9412 64.6258L55.317 51.8719L65.957 57.4663V60.5126L55.4996 55.8173L30.9402 64.6258H30.9412Z" fill="white"/>
<path d="M30.7596 70.1301L55.4008 58.4756L65.9569 63.6693V66.6328L55.5675 62.3046L30.7586 70.1301H30.7596ZM30.575 75.6238L55.4837 65.0677L65.9569 69.8637V72.7443L55.6337 68.7811L30.575 75.6238Z" fill="white"/>
<path d="M30.3926 81.1187L55.5668 71.6619L65.9571 76.0572V78.8549L55.7 75.2579L30.3926 81.1197V81.1187ZM64.3585 20.6465L87.402 0L110.046 20.6465L87.2027 4.6618L64.3585 20.6465Z" fill="white"/>
<path d="M64.3583 26.1463L87.385 6.59909L109.996 26.1463L87.2025 11.1504L64.3583 26.1463Z" fill="white"/>
<path d="M64.3583 31.631L87.3633 13.188L109.952 31.631L87.2025 17.6337L64.3583 31.631Z" fill="white"/>
<path d="M64.3583 37.1307L87.3465 19.7871L109.902 37.1307L87.2025 24.1213L64.3583 37.1307Z" fill="white"/>
<path d="M64.3583 42.6252L87.3298 26.3859L109.852 42.6252L87.2025 30.6155L64.3583 42.6252Z" fill="white"/>
<path d="M64.3583 48.126L87.313 32.985L109.802 48.126L87.2025 37.1031L64.3583 48.126Z" fill="white"/>
<path d="M64.3583 53.6196L87.2913 39.5898L109.758 53.6196L87.2025 43.5963L64.3583 53.6196Z" fill="white"/>
<path d="M64.3583 59.1201L87.2745 46.1886L109.707 59.1201L87.2025 50.0846L64.3583 59.1201Z" fill="white"/>
<path d="M64.3583 64.6247L87.2577 52.7975L109.658 64.6247L87.2025 56.5879L64.3583 64.6247Z" fill="white"/>
<path d="M64.3583 70.1245L87.241 59.3966L109.608 70.1245L87.2025 63.0755L64.3583 70.1245Z" fill="white"/>
<path d="M64.3583 75.6191L87.2193 65.9955L109.563 75.6191L87.2015 69.5698L64.3583 75.6191Z" fill="white"/>
<path d="M64.3583 81.1087L87.2025 72.5845L109.513 81.1087L87.2025 76.0473L64.3583 81.1097V81.1087ZM111 83.1801H0V86.2334H111V83.1801ZM111 130.188H0V133.24H111V130.188ZM17.6278 127.292L15.8989 118.071H5.80061L4.07167 127.292H1.14078L8.63183 89.18H13.0676L20.5577 127.292H17.6268H17.6278ZM6.30192 115.44H15.3976L10.9874 91.8623H10.7367L6.30192 115.44ZM24.5179 127.292V89.2057H29.078L38.8003 123.884V89.2067H41.6059L41.7569 127.292H37.2964L27.3254 92.5382V127.292H24.5189H24.5179ZM55.7127 108.299H64.2823V116.993C64.2823 117.778 64.2488 118.589 64.1817 119.424C64.1148 120.243 63.9808 121.056 63.781 121.854C63.5973 122.64 63.311 123.398 62.9294 124.109C62.5586 124.815 62.0569 125.444 61.4511 125.963C60.8491 126.498 60.0981 126.924 59.1962 127.241C58.311 127.542 57.2423 127.692 55.989 127.692H55.9633C54.6942 127.692 53.6087 127.533 52.7068 127.217C51.8038 126.882 51.044 126.44 50.4262 125.888C49.8145 125.346 49.3127 124.691 48.9479 123.959C48.5912 123.207 48.322 122.417 48.1456 121.603C47.9599 120.736 47.8347 119.857 47.7706 118.973C47.7207 118.071 47.6954 117.169 47.6946 116.267V100.256C47.6946 99.3375 47.7203 98.4188 47.7696 97.5C47.8367 96.5813 47.971 95.6951 48.1713 94.8435C48.3609 94.0227 48.6382 93.2248 48.9982 92.4632C49.3594 91.7363 49.8619 91.0888 50.4765 90.5586C51.0943 90.0248 51.8463 89.5985 52.7314 89.2807C53.6334 88.9639 54.711 88.805 55.9633 88.805H55.989C57.258 88.805 58.3436 88.9728 59.2455 89.3064C60.1643 89.6231 60.9241 90.0494 61.5251 90.5843C62.1355 91.1086 62.638 91.7468 63.0044 92.4632C63.3715 93.1817 63.6478 93.9336 63.8313 94.7181C64.0149 95.5037 64.1313 96.3139 64.1817 97.1487C64.2488 97.9678 64.2823 98.7523 64.2823 99.5043V100.231H61.4008V99.5043C61.4008 98.4346 61.3416 97.4162 61.2251 96.4471C61.1254 95.4612 60.8827 94.6096 60.4988 93.8912C60.1365 93.1619 59.571 92.5529 58.8705 92.1376C58.1521 91.7034 57.1909 91.4863 55.989 91.4863C54.7692 91.4863 53.8002 91.7113 53.0818 92.1623C52.3811 92.6132 51.8384 93.2399 51.4535 94.0422C51.0854 94.8267 50.8436 95.7543 50.7272 96.8231C50.6228 97.9809 50.5724 99.143 50.5762 100.306V116.216C50.5762 117.402 50.6186 118.53 50.7015 119.599C50.8022 120.651 51.0272 121.579 51.3785 122.38C51.7259 123.159 52.2915 123.82 53.0068 124.285C53.7252 124.752 54.7189 124.986 55.989 124.986C57.1416 124.986 58.0682 124.786 58.7699 124.385C59.4713 123.985 60.0449 123.394 60.4238 122.681C60.8087 121.963 61.0662 121.119 61.2004 120.151C61.3385 119.096 61.4054 118.032 61.4008 116.968V110.98H55.7127V108.299ZM70.0958 127.292V89.2314H77.8621C79.3493 89.2314 80.6194 89.406 81.6713 89.7573C82.7233 90.0909 83.5759 90.6425 84.2272 91.4113C84.8953 92.179 85.3798 93.1816 85.6798 94.4172C85.9808 95.6537 86.1318 97.1566 86.1318 98.928V102.561C86.1318 104.382 85.6976 105.986 84.8292 107.371C83.9766 108.741 82.7904 109.76 81.2707 110.429C81.8361 110.783 82.3575 111.204 82.8239 111.682C83.2749 112.116 83.6509 112.617 83.9509 113.185C84.2687 113.753 84.5282 114.396 84.7285 115.114C84.9288 115.832 85.0788 116.651 85.1795 117.569L85.8308 123.107C85.9147 123.892 86.0647 124.644 86.2818 125.362C86.4989 126.064 86.7496 126.707 87.0338 127.292H83.9766C83.7321 126.694 83.5229 126.084 83.3499 125.462C83.1573 124.712 83.0152 123.951 82.9246 123.182L82.2733 117.645C82.1391 116.525 81.8884 115.565 81.5213 114.764C81.17 113.945 80.7447 113.277 80.2434 112.758C79.7588 112.241 79.2407 111.856 78.6901 111.606C78.1375 111.356 77.6125 111.231 77.1112 111.231H72.9517V127.292H70.0958ZM83.2502 98.9023C83.2502 97.3155 83.1081 96.0632 82.8239 95.1445C82.5575 94.2257 82.1805 93.532 81.696 93.0642C81.2485 92.5907 80.6601 92.2744 80.0184 92.1623C79.3167 92.0238 78.6029 91.9567 77.8878 91.9619H72.9517V108.499H77.7871C78.623 108.499 79.374 108.349 80.043 108.048C80.6929 107.744 81.2728 107.309 81.7463 106.77C82.2234 106.219 82.5894 105.581 82.8239 104.891C83.0904 104.173 83.2335 103.396 83.2502 102.561V98.9023ZM99.461 88.805C100.748 88.805 101.841 88.9629 102.744 89.2807C103.646 89.5985 104.406 90.0327 105.024 90.5833C105.633 91.1229 106.127 91.7793 106.477 92.5136C106.844 93.2488 107.12 94.0422 107.304 94.8938C107.505 95.7454 107.63 96.6306 107.679 97.5494C107.73 98.4513 107.755 99.3454 107.755 100.231V116.216C107.755 117.598 107.672 118.979 107.505 120.351C107.354 121.704 106.994 122.932 106.427 124.034C105.875 125.12 105.048 126.006 103.946 126.691C102.844 127.359 101.349 127.692 99.461 127.692H99.4363C98.1662 127.692 97.0728 127.533 96.1541 127.217C95.2521 126.899 94.4922 126.465 93.8745 125.914C93.2753 125.365 92.7825 124.711 92.4209 123.984C92.0657 123.22 91.7886 122.423 91.5939 121.603C91.4081 120.737 91.2906 119.857 91.2426 118.973C91.193 118.071 91.168 117.169 91.1676 116.267V100.256C91.1676 99.3375 91.1923 98.4188 91.2426 97.5C91.3097 96.5813 91.435 95.6951 91.6186 94.8435C91.8189 93.9918 92.1021 93.1984 92.4702 92.4632C92.828 91.7409 93.3215 91.0943 93.9238 90.5586C94.5416 90.008 95.3015 89.5817 96.2034 89.2807C97.1064 88.9639 98.183 88.805 99.4363 88.805H99.461ZM99.5113 124.986C100.714 124.986 101.667 124.761 102.368 124.31C103.081 123.865 103.647 123.22 103.996 122.456C104.364 121.654 104.597 120.718 104.698 119.649C104.815 118.581 104.874 117.428 104.874 116.192V100.256C104.874 99.0869 104.831 97.9757 104.748 96.9237C104.665 95.854 104.44 94.9185 104.071 94.1172C103.735 93.3315 103.167 92.6671 102.443 92.2126C101.725 91.7448 100.731 91.5119 99.461 91.5119C99.4097 91.5145 99.3585 91.5057 99.311 91.4863C98.1248 91.503 97.1814 91.7448 96.4787 92.2126C95.7949 92.6636 95.2689 93.2902 94.9008 94.0915C94.5337 94.877 94.2988 95.8037 94.2001 96.8734C94.0957 98.0144 94.0453 99.1598 94.0492 100.306V116.216C94.0492 117.002 94.0659 117.762 94.0985 118.497C94.133 119.232 94.2071 119.925 94.3255 120.576C94.4419 121.227 94.6166 121.829 94.8505 122.38C95.0844 122.915 95.3932 123.375 95.7781 123.759C96.1787 124.143 96.6722 124.444 97.2564 124.661C97.8583 124.878 98.5846 124.986 99.4363 124.986H99.5113Z" fill="white"/>
</svg>
