<svg width="31" height="31" viewBox="0 0 31 31" fill="none" xmlns="http://www.w3.org/2000/svg">
<path d="M18.2862 17.8565L17.101 20.1262C16.9712 20.3748 16.6763 20.4873 16.4139 20.3881C13.7377 19.375 11.6253 17.2621 10.613 14.5856C10.5138 14.3231 10.6262 14.0282 10.8749 13.8985L13.1446 12.7138L12.4289 8.65848C11.5717 8.17599 10.523 8.18491 9.67398 8.68145C8.82498 9.17799 8.3033 10.0878 8.30357 11.0714C8.31087 17.4886 13.5114 22.6891 19.9286 22.6964C20.9116 22.6964 21.8212 22.175 22.3177 21.3263C22.8143 20.4778 22.8235 19.4293 22.3415 18.5722L18.2862 17.8565Z" fill="#F0AF9A"/>
<path d="M15.5 0C6.93964 0 0 6.93964 0 15.5C0 24.0604 6.93964 31 15.5 31C24.0604 31 31 24.0604 31 15.5C30.9903 6.9437 24.0563 0.00973075 15.5 0ZM19.9286 23.8036C12.9 23.7957 7.20427 18.1 7.19643 11.0714C7.1967 9.63831 7.98786 8.32222 9.2534 7.64972C10.5192 6.97749 12.0526 7.05858 13.2403 7.86082C13.3646 7.94461 13.4495 8.07544 13.4755 8.22329L14.3058 12.9214C14.3477 13.1592 14.2309 13.3965 14.0169 13.5082L11.8358 14.6475C12.7278 16.6639 14.3388 18.2757 16.3547 19.1685L17.4929 16.9847C17.6045 16.7707 17.8419 16.6539 18.0797 16.6958L22.7783 17.5262C22.9259 17.5521 23.0565 17.6367 23.1403 17.7608C23.942 18.9485 24.0228 20.4819 23.3503 21.7471C22.6775 23.0127 21.3617 23.8036 19.9286 23.8036Z" fill="#F0AF9A"/>
</svg>
