<svg width="31" height="31" viewBox="0 0 31 31" fill="none" xmlns="http://www.w3.org/2000/svg">
<path d="M16.6071 12.1784C16.6071 12.7898 16.1114 13.2856 15.5 13.2856C14.8886 13.2856 14.3929 12.7898 14.3929 12.1784C14.3929 11.567 14.8886 11.0713 15.5 11.0713C16.1114 11.0713 16.6071 11.567 16.6071 12.1784Z" fill="#F0AF9A"/>
<path d="M15.5 7.75C12.444 7.75324 9.96753 10.2297 9.96429 13.2857C9.96429 16.8031 14.1774 21.5893 15.5 23.0027C16.822 21.5893 21.0357 16.7999 21.0357 13.2857C21.0325 10.2297 18.556 7.75324 15.5 7.75ZM15.5 14.3929C14.2772 14.3929 13.2857 13.4014 13.2857 12.1786C13.2857 10.9557 14.2772 9.96429 15.5 9.96429C16.7228 9.96429 17.7143 10.9557 17.7143 12.1786C17.7143 13.4014 16.7228 14.3929 15.5 14.3929Z" fill="#F0AF9A"/>
<path d="M15.5 0C6.93964 0 0 6.93964 0 15.5C0 24.0604 6.93964 31 15.5 31C24.0604 31 31 24.0604 31 15.5C30.9903 6.9437 24.0563 0.00973075 15.5 0ZM15.8914 24.195C15.6752 24.4109 15.3248 24.4109 15.1086 24.195C14.8534 23.9398 8.85714 17.8902 8.85714 13.2857C8.85714 9.61695 11.8312 6.64286 15.5 6.64286C19.1688 6.64286 22.1429 9.61695 22.1429 13.2857C22.1429 17.8902 16.1466 23.9398 15.8914 24.195Z" fill="#F0AF9A"/>
</svg>
